<svg width="47" height="47" viewBox="0 0 47 47" fill="none" xmlns="http://www.w3.org/2000/svg">
<circle cx="23.3281" cy="23.4648" r="22" stroke="#D2D2D2" stroke-width="2"/>
<g clip-path="url(#clip0_36_434)">
<path d="M31.5575 24.5585H16.0987C15.8629 24.5585 15.6498 24.4136 15.5595 24.1922C15.4693 23.9701 15.5192 23.7148 15.686 23.545L22.6857 16.42C22.9137 16.1878 23.2824 16.1878 23.5104 16.42C23.7384 16.6521 23.7384 17.0274 23.5104 17.2595L17.507 23.371H31.5569C31.8799 23.371 32.1406 23.637 32.1406 23.9647C32.1406 24.2925 31.8799 24.5585 31.5575 24.5585Z" fill="#252525"/>
<path d="M23.099 31.6835C22.9499 31.6835 22.8003 31.6253 22.6863 31.5095L18.0194 26.7595C17.7914 26.5274 17.7914 26.1521 18.0194 25.92C18.2474 25.6878 18.6162 25.6878 18.8442 25.92L23.511 30.67C23.739 30.9021 23.739 31.2774 23.511 31.5095C23.3976 31.6253 23.248 31.6835 23.099 31.6835Z" fill="#252525"/>
</g>
<defs>
<clipPath id="clip0_36_434">
<rect width="19" height="19" fill="white" transform="translate(14.3281 14.4648)"/>
</clipPath>
</defs>
</svg>
