<svg width="16" height="15" viewBox="0 0 16 15" fill="none" xmlns="http://www.w3.org/2000/svg">
<g id="calendar 2" clip-path="url(#clip0_54_903)">
<g id="Group">
<g id="_x31_5_38_">
<g id="Group_2">
<path id="Vector" d="M4.16547 3.56738H4.38007C4.70621 3.56738 4.97057 3.30292 4.97057 2.97687V1.34734V0.737811C4.97057 0.411768 4.70621 0.147339 4.38007 0.147339H4.16547C3.83937 0.147339 3.575 0.411768 3.575 0.737811V1.34737V2.97687C3.575 3.30292 3.83937 3.56738 4.16547 3.56738Z" fill="#656565"/>
<path id="Vector_2" d="M11.7395 3.55273H11.9541C12.2802 3.55273 12.5445 3.2883 12.5445 2.96222V1.19266V0.723132C12.5445 0.397119 12.2802 0.13269 11.9541 0.13269H11.7395C11.4133 0.13269 11.1489 0.397119 11.1489 0.723132V1.19266V2.96219C11.149 3.2883 11.4134 3.55273 11.7395 3.55273Z" fill="#656565"/>
<path id="Vector_3" d="M14.5401 1.34729H13.0246V3.11682C13.0246 3.70711 12.5444 4.03269 11.9541 4.03269H11.7395C11.1493 4.03269 10.669 3.55245 10.669 2.96216V1.34729H5.45059V2.97679C5.45059 3.56708 4.97039 4.04732 4.3801 4.04732H4.1655C3.57525 4.04732 3.09505 3.56708 3.09505 2.97679V1.34729H1.45997C0.930652 1.34729 0.5 1.77794 0.5 2.30729V13.9073C0.5 14.4367 0.930652 14.8673 1.45997 14.8673H14.5401C15.0694 14.8673 15.5 14.4367 15.5 13.9073V2.30729C15.5001 1.77797 15.0694 1.34729 14.5401 1.34729ZM14.5401 13.9073H1.46L1.45997 5.14728H14.5402L14.5407 13.9073C14.5407 13.9073 14.5405 13.9073 14.5401 13.9073Z" fill="#656565"/>
<path id="Vector_4" d="M8.49559 8.08572H10.2193C10.2876 8.08572 10.343 8.03033 10.343 7.962V6.46943C10.343 6.4011 10.2876 6.3457 10.2193 6.3457H8.49559C8.42727 6.3457 8.37187 6.4011 8.37187 6.46943V7.962C8.37187 8.03033 8.42727 8.08572 8.49559 8.08572Z" fill="#656565"/>
<path id="Vector_5" d="M11.3086 8.08572H13.0323C13.1006 8.08572 13.156 8.03033 13.156 7.962V6.46943C13.156 6.4011 13.1006 6.3457 13.0323 6.3457H11.3086C11.2403 6.3457 11.1849 6.4011 11.1849 6.46943V7.962C11.1849 8.03033 11.2403 8.08572 11.3086 8.08572Z" fill="#656565"/>
<path id="Vector_6" d="M2.86965 10.5292H4.59331C4.66164 10.5292 4.71703 10.4738 4.71703 10.4055V8.91291C4.71703 8.84458 4.66164 8.78918 4.59331 8.78918H2.86965C2.80133 8.78918 2.74593 8.84458 2.74593 8.91291V10.4055C2.74593 10.4738 2.80133 10.5292 2.86965 10.5292Z" fill="#656565"/>
<path id="Vector_7" d="M5.68264 10.5292H7.4063C7.47462 10.5292 7.53002 10.4738 7.53002 10.4055V8.91291C7.53002 8.84458 7.47462 8.78918 7.4063 8.78918H5.68264C5.61431 8.78918 5.55891 8.84458 5.55891 8.91291V10.4055C5.55891 10.4738 5.61431 10.5292 5.68264 10.5292Z" fill="#656565"/>
<path id="Vector_8" d="M8.49562 10.5292H10.2193C10.2876 10.5292 10.343 10.4738 10.343 10.4055V8.91291C10.343 8.84458 10.2876 8.78918 10.2193 8.78918H8.49562C8.4273 8.78918 8.3719 8.84458 8.3719 8.91291V10.4055C8.3719 10.4738 8.4273 10.5292 8.49562 10.5292Z" fill="#656565"/>
<path id="Vector_9" d="M11.3086 10.5292H13.0323C13.1006 10.5292 13.156 10.4738 13.156 10.4055V8.91291C13.156 8.84458 13.1006 8.78918 13.0323 8.78918H11.3086C11.2403 8.78918 11.1849 8.84458 11.1849 8.91291V10.4055C11.1849 10.4738 11.2403 10.5292 11.3086 10.5292Z" fill="#656565"/>
<path id="Vector_10" d="M4.59331 11.2328H2.86968C2.80136 11.2328 2.74596 11.2882 2.74596 11.3565V12.8491C2.74596 12.9174 2.80136 12.9728 2.86968 12.9728H4.59334C4.66167 12.9728 4.71706 12.9174 4.71706 12.8491V11.3565C4.71703 11.2882 4.66164 11.2328 4.59331 11.2328Z" fill="#656565"/>
<path id="Vector_11" d="M7.40633 11.2328H5.68267C5.61434 11.2328 5.55894 11.2882 5.55894 11.3565V12.8491C5.55894 12.9174 5.61434 12.9728 5.68267 12.9728H7.40633C7.47465 12.9728 7.53005 12.9174 7.53005 12.8491V11.3565C7.53005 11.2882 7.47465 11.2328 7.40633 11.2328Z" fill="#656565"/>
<path id="Vector_12" d="M10.2193 11.2328H8.49565C8.42733 11.2328 8.37193 11.2882 8.37193 11.3565V12.8491C8.37193 12.9174 8.42733 12.9728 8.49565 12.9728H10.2193C10.2877 12.9728 10.3431 12.9174 10.3431 12.8491V11.3565C10.3431 11.2882 10.2877 11.2328 10.2193 11.2328Z" fill="#656565"/>
<path id="Vector_13" d="M13.0323 11.2328H11.3086C11.2403 11.2328 11.1849 11.2882 11.1849 11.3565V12.8491C11.1849 12.9174 11.2403 12.9728 11.3086 12.9728H13.0323C13.1006 12.9728 13.156 12.9174 13.156 12.8491V11.3565C13.156 11.2882 13.1006 11.2328 13.0323 11.2328Z" fill="#656565"/>
</g>
</g>
</g>
</g>
<defs>
<clipPath id="clip0_54_903">
<rect width="15" height="15" fill="white" transform="translate(0.5)"/>
</clipPath>
</defs>
</svg>
