<svg width="180" height="69" viewBox="0 0 180 69" fill="none" xmlns="http://www.w3.org/2000/svg">
<g filter="url(#filter0_d_5_505)">
<rect x="4.44611" y="0.824707" width="170.585" height="59.8154" rx="9" fill="white"/>
<path d="M67.7561 25.2632H68.8661V35.7632H67.7561V25.2632ZM76.0774 27.8132C77.0674 27.8132 77.8524 28.1032 78.4324 28.6832C79.0224 29.2532 79.3174 30.0882 79.3174 31.1882V35.7632H78.2524V31.2932C78.2524 30.4732 78.0474 29.8482 77.6374 29.4182C77.2274 28.9882 76.6424 28.7732 75.8824 28.7732C75.0324 28.7732 74.3574 29.0282 73.8574 29.5382C73.3674 30.0382 73.1224 30.7332 73.1224 31.6232V35.7632H72.0574V27.8732H73.0774V29.3282C73.3674 28.8482 73.7674 28.4782 74.2774 28.2182C74.7974 27.9482 75.3974 27.8132 76.0774 27.8132ZM84.3238 35.8382C83.6838 35.8382 83.0688 35.7482 82.4788 35.5682C81.8988 35.3782 81.4438 35.1432 81.1138 34.8632L81.5938 34.0232C81.9238 34.2832 82.3388 34.4982 82.8388 34.6682C83.3388 34.8282 83.8588 34.9082 84.3988 34.9082C85.1188 34.9082 85.6488 34.7982 85.9888 34.5782C86.3388 34.3482 86.5138 34.0282 86.5138 33.6182C86.5138 33.3282 86.4188 33.1032 86.2288 32.9432C86.0388 32.7732 85.7988 32.6482 85.5088 32.5682C85.2188 32.4782 84.8338 32.3932 84.3538 32.3132C83.7138 32.1932 83.1988 32.0732 82.8088 31.9532C82.4188 31.8232 82.0838 31.6082 81.8038 31.3082C81.5338 31.0082 81.3988 30.5932 81.3988 30.0632C81.3988 29.4032 81.6738 28.8632 82.2238 28.4432C82.7738 28.0232 83.5388 27.8132 84.5188 27.8132C85.0288 27.8132 85.5388 27.8832 86.0488 28.0232C86.5588 28.1532 86.9788 28.3282 87.3088 28.5482L86.8438 29.4032C86.1938 28.9532 85.4188 28.7282 84.5188 28.7282C83.8388 28.7282 83.3238 28.8482 82.9738 29.0882C82.6338 29.3282 82.4638 29.6432 82.4638 30.0332C82.4638 30.3332 82.5588 30.5732 82.7488 30.7532C82.9488 30.9332 83.1938 31.0682 83.4838 31.1582C83.7738 31.2382 84.1738 31.3232 84.6838 31.4132C85.3138 31.5332 85.8188 31.6532 86.1988 31.7732C86.5788 31.8932 86.9038 32.0982 87.1738 32.3882C87.4438 32.6782 87.5788 33.0782 87.5788 33.5882C87.5788 34.2782 87.2888 34.8282 86.7088 35.2382C86.1388 35.6382 85.3438 35.8382 84.3238 35.8382ZM93.7027 35.2832C93.5027 35.4632 93.2527 35.6032 92.9527 35.7032C92.6627 35.7932 92.3577 35.8382 92.0377 35.8382C91.2977 35.8382 90.7277 35.6382 90.3277 35.2382C89.9277 34.8382 89.7277 34.2732 89.7277 33.5432V28.7732H88.3177V27.8732H89.7277V26.1482H90.7927V27.8732H93.1927V28.7732H90.7927V33.4832C90.7927 33.9532 90.9077 34.3132 91.1377 34.5632C91.3777 34.8032 91.7177 34.9232 92.1577 34.9232C92.3777 34.9232 92.5877 34.8882 92.7877 34.8182C92.9977 34.7482 93.1777 34.6482 93.3277 34.5182L93.7027 35.2832ZM98.4014 27.8132C99.4314 27.8132 100.221 28.0732 100.771 28.5932C101.321 29.1032 101.596 29.8632 101.596 30.8732V35.7632H100.576V34.5332C100.336 34.9432 99.9814 35.2632 99.5114 35.4932C99.0514 35.7232 98.5014 35.8382 97.8614 35.8382C96.9814 35.8382 96.2814 35.6282 95.7614 35.2082C95.2414 34.7882 94.9814 34.2332 94.9814 33.5432C94.9814 32.8732 95.2214 32.3332 95.7014 31.9232C96.1914 31.5132 96.9664 31.3082 98.0264 31.3082H100.531V30.8282C100.531 30.1482 100.341 29.6332 99.9614 29.2832C99.5814 28.9232 99.0264 28.7432 98.2964 28.7432C97.7964 28.7432 97.3164 28.8282 96.8564 28.9982C96.3964 29.1582 96.0014 29.3832 95.6714 29.6732L95.1914 28.8782C95.5914 28.5382 96.0714 28.2782 96.6314 28.0982C97.1914 27.9082 97.7814 27.8132 98.4014 27.8132ZM98.0264 34.9982C98.6264 34.9982 99.1414 34.8632 99.5714 34.5932C100.001 34.3132 100.321 33.9132 100.531 33.3932V32.1032H98.0564C96.7064 32.1032 96.0314 32.5732 96.0314 33.5132C96.0314 33.9732 96.2064 34.3382 96.5564 34.6082C96.9064 34.8682 97.3964 34.9982 98.0264 34.9982ZM111.823 27.8732V34.8032C111.823 36.1432 111.493 37.1332 110.833 37.7732C110.183 38.4232 109.198 38.7482 107.878 38.7482C107.148 38.7482 106.453 38.6382 105.793 38.4182C105.143 38.2082 104.613 37.9132 104.203 37.5332L104.743 36.7232C105.123 37.0632 105.583 37.3282 106.123 37.5182C106.673 37.7082 107.248 37.8032 107.848 37.8032C108.848 37.8032 109.583 37.5682 110.053 37.0982C110.523 36.6382 110.758 35.9182 110.758 34.9382V33.9332C110.428 34.4332 109.993 34.8132 109.453 35.0732C108.923 35.3332 108.333 35.4632 107.683 35.4632C106.943 35.4632 106.268 35.3032 105.658 34.9832C105.058 34.6532 104.583 34.1982 104.233 33.6182C103.893 33.0282 103.723 32.3632 103.723 31.6232C103.723 30.8832 103.893 30.2232 104.233 29.6432C104.583 29.0632 105.058 28.6132 105.658 28.2932C106.258 27.9732 106.933 27.8132 107.683 27.8132C108.353 27.8132 108.958 27.9482 109.498 28.2182C110.038 28.4882 110.473 28.8782 110.803 29.3882V27.8732H111.823ZM107.788 34.5182C108.358 34.5182 108.873 34.3982 109.333 34.1582C109.793 33.9082 110.148 33.5632 110.398 33.1232C110.658 32.6832 110.788 32.1832 110.788 31.6232C110.788 31.0632 110.658 30.5682 110.398 30.1382C110.148 29.6982 109.793 29.3582 109.333 29.1182C108.883 28.8682 108.368 28.7432 107.788 28.7432C107.218 28.7432 106.703 28.8632 106.243 29.1032C105.793 29.3432 105.438 29.6832 105.178 30.1232C104.928 30.5632 104.803 31.0632 104.803 31.6232C104.803 32.1832 104.928 32.6832 105.178 33.1232C105.438 33.5632 105.793 33.9082 106.243 34.1582C106.703 34.3982 107.218 34.5182 107.788 34.5182ZM115.822 29.4182C116.072 28.8882 116.442 28.4882 116.932 28.2182C117.432 27.9482 118.047 27.8132 118.777 27.8132V28.8482L118.522 28.8332C117.692 28.8332 117.042 29.0882 116.572 29.5982C116.102 30.1082 115.867 30.8232 115.867 31.7432V35.7632H114.802V27.8732H115.822V29.4182ZM123.45 27.8132C124.48 27.8132 125.27 28.0732 125.82 28.5932C126.37 29.1032 126.645 29.8632 126.645 30.8732V35.7632H125.625V34.5332C125.385 34.9432 125.03 35.2632 124.56 35.4932C124.1 35.7232 123.55 35.8382 122.91 35.8382C122.03 35.8382 121.33 35.6282 120.81 35.2082C120.29 34.7882 120.03 34.2332 120.03 33.5432C120.03 32.8732 120.27 32.3332 120.75 31.9232C121.24 31.5132 122.015 31.3082 123.075 31.3082H125.58V30.8282C125.58 30.1482 125.39 29.6332 125.01 29.2832C124.63 28.9232 124.075 28.7432 123.345 28.7432C122.845 28.7432 122.365 28.8282 121.905 28.9982C121.445 29.1582 121.05 29.3832 120.72 29.6732L120.24 28.8782C120.64 28.5382 121.12 28.2782 121.68 28.0982C122.24 27.9082 122.83 27.8132 123.45 27.8132ZM123.075 34.9982C123.675 34.9982 124.19 34.8632 124.62 34.5932C125.05 34.3132 125.37 33.9132 125.58 33.3932V32.1032H123.105C121.755 32.1032 121.08 32.5732 121.08 33.5132C121.08 33.9732 121.255 34.3382 121.605 34.6082C121.955 34.8682 122.445 34.9982 123.075 34.9982ZM139.378 27.8132C140.368 27.8132 141.143 28.0982 141.703 28.6682C142.273 29.2382 142.558 30.0782 142.558 31.1882V35.7632H141.493V31.2932C141.493 30.4732 141.293 29.8482 140.893 29.4182C140.503 28.9882 139.948 28.7732 139.228 28.7732C138.408 28.7732 137.763 29.0282 137.293 29.5382C136.823 30.0382 136.588 30.7332 136.588 31.6232V35.7632H135.523V31.2932C135.523 30.4732 135.323 29.8482 134.923 29.4182C134.533 28.9882 133.973 28.7732 133.243 28.7732C132.433 28.7732 131.788 29.0282 131.308 29.5382C130.838 30.0382 130.603 30.7332 130.603 31.6232V35.7632H129.538V27.8732H130.558V29.3132C130.838 28.8332 131.228 28.4632 131.728 28.2032C132.228 27.9432 132.803 27.8132 133.453 27.8132C134.113 27.8132 134.683 27.9532 135.163 28.2332C135.653 28.5132 136.018 28.9282 136.258 29.4782C136.548 28.9582 136.963 28.5532 137.503 28.2632C138.053 27.9632 138.678 27.8132 139.378 27.8132Z" fill="#1C1C1B"/>
<g clip-path="url(#clip0_5_505)">
<path d="M50.0419 21H41.9581C38.6728 21 36 23.6728 36 26.9581V35.0419C36 38.3272 38.6728 41 41.9581 41H50.0419C53.3272 41 56 38.3272 56 35.0419V26.9581C56 23.6728 53.3272 21 50.0419 21ZM53.988 35.0419C53.988 37.2213 52.2213 38.988 50.0419 38.988H41.9581C39.7788 38.988 38.012 37.2213 38.012 35.0419V26.9581C38.012 24.7787 39.7788 23.012 41.9581 23.012H50.0419C52.2213 23.012 53.988 24.7787 53.988 26.9581V35.0419Z" fill="url(#paint0_linear_5_505)"/>
<path d="M46 25.8271C43.1477 25.8271 40.8273 28.1476 40.8273 30.9998C40.8273 33.852 43.1477 36.1725 46 36.1725C48.8522 36.1725 51.1727 33.8521 51.1727 30.9998C51.1727 28.1476 48.8522 25.8271 46 25.8271ZM46 34.1606C44.2544 34.1606 42.8393 32.7455 42.8393 30.9999C42.8393 29.2542 44.2544 27.8391 46 27.8391C47.7456 27.8391 49.1607 29.2542 49.1607 30.9999C49.1607 32.7455 47.7456 34.1606 46 34.1606Z" fill="url(#paint1_linear_5_505)"/>
<path d="M51.1827 27.1054C51.8673 27.1054 52.4222 26.5505 52.4222 25.866C52.4222 25.1814 51.8673 24.6265 51.1827 24.6265C50.4982 24.6265 49.9432 25.1814 49.9432 25.866C49.9432 26.5505 50.4982 27.1054 51.1827 27.1054Z" fill="url(#paint2_linear_5_505)"/>
</g>
</g>
<defs>
<filter id="filter0_d_5_505" x="0.446106" y="0.824707" width="178.585" height="67.8154" filterUnits="userSpaceOnUse" color-interpolation-filters="sRGB">
<feFlood flood-opacity="0" result="BackgroundImageFix"/>
<feColorMatrix in="SourceAlpha" type="matrix" values="0 0 0 0 0 0 0 0 0 0 0 0 0 0 0 0 0 0 127 0" result="hardAlpha"/>
<feOffset dy="4"/>
<feGaussianBlur stdDeviation="2"/>
<feComposite in2="hardAlpha" operator="out"/>
<feColorMatrix type="matrix" values="0 0 0 0 0 0 0 0 0 0 0 0 0 0 0 0 0 0 0.13 0"/>
<feBlend mode="normal" in2="BackgroundImageFix" result="effect1_dropShadow_5_505"/>
<feBlend mode="normal" in="SourceGraphic" in2="effect1_dropShadow_5_505" result="shape"/>
</filter>
<linearGradient id="paint0_linear_5_505" x1="46" y1="40.9418" x2="46" y2="21.1553" gradientUnits="userSpaceOnUse">
<stop stop-color="#E09B3D"/>
<stop offset="0.3" stop-color="#C74C4D"/>
<stop offset="0.6" stop-color="#C21975"/>
<stop offset="1" stop-color="#7024C4"/>
</linearGradient>
<linearGradient id="paint1_linear_5_505" x1="46" y1="40.9416" x2="46" y2="21.1552" gradientUnits="userSpaceOnUse">
<stop stop-color="#E09B3D"/>
<stop offset="0.3" stop-color="#C74C4D"/>
<stop offset="0.6" stop-color="#C21975"/>
<stop offset="1" stop-color="#7024C4"/>
</linearGradient>
<linearGradient id="paint2_linear_5_505" x1="51.1827" y1="40.9416" x2="51.1827" y2="21.1552" gradientUnits="userSpaceOnUse">
<stop stop-color="#E09B3D"/>
<stop offset="0.3" stop-color="#C74C4D"/>
<stop offset="0.6" stop-color="#C21975"/>
<stop offset="1" stop-color="#7024C4"/>
</linearGradient>
<clipPath id="clip0_5_505">
<rect width="20" height="20" fill="white" transform="translate(36 21)"/>
</clipPath>
</defs>
</svg>
