<svg width="15" height="15" viewBox="0 0 15 15" fill="none" xmlns="http://www.w3.org/2000/svg">
<g id="more 1" clip-path="url(#clip0_36_353)">
<g id="Group">
<g id="Group_2">
<path id="Vector" d="M1.92809 8.5383C2.70129 8.5383 3.3281 7.91149 3.3281 7.13829C3.3281 6.36509 2.70129 5.73828 1.92809 5.73828C1.15488 5.73828 0.528076 6.36509 0.528076 7.13829C0.528076 7.91149 1.15488 8.5383 1.92809 8.5383Z" fill="#252525"/>
</g>
</g>
<g id="Group_3">
<g id="Group_4">
<path id="Vector_2" d="M7.52806 8.5383C8.30127 8.5383 8.92807 7.91149 8.92807 7.13829C8.92807 6.36509 8.30127 5.73828 7.52806 5.73828C6.75486 5.73828 6.12805 6.36509 6.12805 7.13829C6.12805 7.91149 6.75486 8.5383 7.52806 8.5383Z" fill="#252525"/>
</g>
</g>
<g id="Group_5">
<g id="Group_6">
<path id="Vector_3" d="M13.128 8.5383C13.9012 8.5383 14.528 7.91149 14.528 7.13829C14.528 6.36509 13.9012 5.73828 13.128 5.73828C12.3548 5.73828 11.728 6.36509 11.728 7.13829C11.728 7.91149 12.3548 8.5383 13.128 8.5383Z" fill="#252525"/>
</g>
</g>
</g>
<defs>
<clipPath id="clip0_36_353">
<rect width="14" height="14" fill="white" transform="translate(0.528076 0.138428)"/>
</clipPath>
</defs>
</svg>
