<svg width="196" height="15" viewBox="0 0 196 15" fill="none" xmlns="http://www.w3.org/2000/svg">
<g id="payment-methods-0070bdcc50eb301a4b796768c16a7f37 1" clip-path="url(#clip0_36_485)">
<g id="SberPay">
<g id="2210-&#208;&#159;&#208;&#190;&#208;&#180;&#208;&#178;&#208;&#176;&#208;&#187;-(SberPay)">
<g id="ft-payment">
<g id="mc_symbol">
<path id="Rectangle" d="M49.7128 1.68604H43.8858V12.5427H49.7128V1.68604Z" fill="#FF5F00"/>
<path id="Path" d="M44.486 7.11517C44.4845 4.99695 45.3369 2.9956 46.7976 1.68778C44.3161 -0.536872 40.7526 -0.212833 38.6114 2.43217C36.4702 5.07717 36.4702 9.1551 38.6114 11.8001C40.7526 14.4451 44.3161 14.7691 46.7976 12.5445C45.3365 11.2362 44.484 9.23407 44.486 7.11517Z" fill="#EB001B"/>
<path id="Shape" d="M56.0531 11.9033V11.2588H56.1667V11.1255H55.8962V11.2588H56.0031V11.9033H56.0531ZM56.5781 11.9033V11.1255H56.4962L56.4008 11.681L56.3053 11.1255H56.2235V11.9033H56.2826V11.3144L56.3712 11.8199H56.4326L56.5212 11.3144V11.9033H56.5781Z" fill="#F79E1B"/>
<path id="Path_2" d="M56.5906 7.1154C56.5906 9.75878 55.2674 12.1701 53.1831 13.3252C51.0988 14.4804 48.6193 14.1766 46.7976 12.5428C48.2577 11.2339 49.1101 9.23277 49.1101 7.11444C49.1101 4.9961 48.2577 2.99502 46.7976 1.68608C48.6193 0.0523207 51.0988 -0.251507 53.1831 0.903636C55.2674 2.05878 56.5906 4.47009 56.5906 7.11348V7.1154Z" fill="#F79E1B"/>
</g>
<g id="paym-mir">
<path id="Fill-1" d="M80.4006 7.97514H80.1885V1.68066H77.2172V12.3328H79.7388C80.401 12.3328 81.0028 11.8936 81.2802 11.2077L83.3717 6.03836H83.5841V12.3328H86.5552V1.68066H84.0336C83.3714 1.68066 82.7696 2.11992 82.4922 2.80581L80.4006 7.97514Z" fill="#319B42"/>
<path id="Fill-2" d="M70.9638 3.0806L69.6997 7.97514H69.4828L68.2187 3.0806C68.0045 2.25153 67.3251 1.68066 66.5524 1.68066H63.5216V12.3328H66.5564V6.03836H66.7731L68.5073 12.3328H70.6752L72.4094 6.03836H72.6261V12.3328H75.6609V1.68066H72.6301C71.8575 1.68066 71.178 2.25153 70.9638 3.0806Z" fill="#319B42"/>
<path id="Fill-3" d="M87.8002 6.65186V12.333H90.8255V9.01907H94.0793C95.4927 9.01907 96.6919 8.03002 97.1382 6.65186H87.8002Z" fill="#319B42"/>
<g id="Fill-4-Clipped">
<g id="Mask group">
<mask id="mask0_36_485" style="mask-type:luminance" maskUnits="userSpaceOnUse" x="87" y="1" width="11" height="5">
<g id="Group">
<path id="Vector" d="M94.2604 1.71094H87.5167C87.9261 4.03393 89.8752 5.79475 92.2209 5.79475H97.4578C97.5006 5.57486 97.5233 5.34721 97.5233 5.1142C97.5233 3.2346 96.0624 1.71094 94.2604 1.71094Z" fill="url(#paint0_linear_36_485)"/>
</g>
</mask>
<g mask="url(#mask0_36_485)">
<path id="Fill-4" d="M94.2604 1.71094H87.5167C87.9261 4.03393 89.8752 5.79475 92.2209 5.79475H97.4578C97.5006 5.57486 97.5233 5.34721 97.5233 5.1142C97.5233 3.2346 96.0624 1.71094 94.2604 1.71094Z" fill="url(#paint1_linear_36_485)"/>
</g>
</g>
</g>
</g>
<g id="sberpay">
<path id="Path_3" d="M189.368 14.125H176.022C174.394 14.125 172.833 13.3875 171.683 12.0748C170.532 10.762 169.885 8.98153 169.885 7.125C169.885 5.26847 170.532 3.488 171.683 2.17523C172.833 0.862465 174.394 0.125 176.022 0.125H189.368C190.995 0.125 192.556 0.862465 193.707 2.17523C194.858 3.488 195.504 5.26847 195.504 7.125C195.504 8.98153 194.858 10.762 193.707 12.0748C192.556 13.3875 190.995 14.125 189.368 14.125Z" fill="#219F38"/>
<path id="Shape_2" d="M182.574 7.82097V9.39036H181.795V4.35205H183.245C184.622 4.35205 185.207 4.92097 185.207 6.05778C185.207 7.23064 184.522 7.82097 183.245 7.82097H182.574ZM182.574 5.18013V6.99402H183.302C184.024 6.99402 184.398 6.72022 184.398 6.03637C184.398 5.41787 184.074 5.18013 183.314 5.18013H182.574Z" fill="white"/>
<path id="Shape_3" d="M185.618 6.04262C185.824 5.86234 186.197 5.71924 186.734 5.71924C187.643 5.71924 188.092 6.07868 188.092 7.01492V9.38985H187.406V8.74205C187.257 9.16008 186.877 9.44731 186.379 9.44731C185.75 9.44731 185.376 9.03727 185.376 8.33191C185.376 7.51173 185.892 7.28074 186.659 7.28074H187.363V7.12196C187.363 6.61041 187.151 6.45267 186.734 6.45267C186.16 6.45267 185.831 6.71182 185.618 7.09379V6.04262ZM187.363 8.12356V7.82835H186.746C186.316 7.82835 186.111 7.92187 186.111 8.24628C186.111 8.52008 186.285 8.69248 186.609 8.69248C187.101 8.69135 187.331 8.36797 187.363 8.12356Z" fill="white"/>
<path id="Path_4" d="M188.453 5.79199H189.269L190.122 8.26044L190.819 5.79199H191.591L190.345 9.77237C190.071 10.6365 189.791 10.8303 189.38 10.8303C189.187 10.8303 188.975 10.7661 188.882 10.6714V9.8873C188.975 9.99547 189.119 10.0676 189.255 10.0676C189.48 10.0676 189.647 9.89518 189.766 9.40514L188.453 5.79199Z" fill="white"/>
<path id="Path_5" d="M174.665 6.04681V7.15206L175.934 8.07028L178.969 5.48577C178.862 5.21197 178.727 4.9562 178.569 4.7207L175.934 6.96502L174.665 6.04681Z" fill="white"/>
<path id="Path_6" d="M178.494 6.9934C178.495 7.01931 178.495 7.04636 178.495 7.07227C178.495 8.70476 177.346 10.032 175.934 10.032C174.522 10.032 173.372 8.70476 173.372 7.07227C173.372 5.43978 174.521 4.11255 175.933 4.11255C176.468 4.11255 176.966 4.30298 177.377 4.62974L178.024 4.07762C177.453 3.54363 176.725 3.22363 175.932 3.22363C174.092 3.22363 172.602 4.94739 172.602 7.0734C172.602 9.19941 174.093 10.9232 175.932 10.9232C177.772 10.9232 179.263 9.19941 179.263 7.0734C179.263 6.8379 179.244 6.60692 179.209 6.38391L178.494 6.9934Z" fill="white"/>
</g>
<g id="iomoney">
<path id="Shape_4" d="M115.577 0.125C112.159 0.125 109.441 3.27058 109.441 7.125C109.441 11.0237 112.198 14.125 115.577 14.125C118.956 14.125 121.713 10.9794 121.713 7.125C121.752 3.27058 118.956 0.125 115.577 0.125ZM115.577 9.73891C114.334 9.73891 113.286 8.54272 113.286 7.125C113.286 5.70728 114.334 4.51109 115.577 4.51109C116.82 4.51109 117.869 5.70728 117.869 7.125C117.869 8.54272 116.859 9.73891 115.577 9.73891Z" fill="#8B3FFD"/>
<path id="Path_7" d="M109.441 2.16309V12.353H107.227L104.431 2.16309H109.441Z" fill="#8B3FFD"/>
<path id="Path_8" d="M161.211 3.97949L159.852 7.78962C159.813 7.83392 159.813 7.92251 159.813 7.96683L159.774 8.05542L159.735 7.96683C159.735 7.92251 159.697 7.83392 159.697 7.78962L158.337 3.97949H156.59L158.881 10.4922L157.91 12.9731H159.658L162.881 3.97949H161.211Z" fill="black"/>
<path id="Path_9" d="M148.317 4.33384C148.006 4.06801 147.618 3.8908 147.152 3.8465C146.375 3.75788 145.638 4.06801 145.133 4.64397V3.93512H143.54V10.4478H145.133V7.03637C145.133 6.2832 145.249 6.06169 145.366 5.88448C145.56 5.53006 145.909 5.35285 146.337 5.35285C146.764 5.35285 147.152 5.57435 147.346 5.92878C147.463 6.19461 147.502 6.54903 147.502 6.72625C147.502 7.30221 147.502 10.4478 147.502 10.4478H149.094V6.50474C149.094 5.48573 148.822 4.77689 148.317 4.33384Z" fill="black"/>
<path id="Shape_5" d="M140.511 4.02383C139.734 3.7137 138.88 3.75802 138.103 4.15674C137.598 4.42258 137.132 4.86559 136.86 5.44155C136.588 5.92889 136.472 6.54915 136.472 7.2137C136.472 7.87825 136.588 8.49851 136.86 8.98585C137.132 9.47319 137.482 9.91623 137.947 10.1821C138.414 10.4479 138.957 10.6251 139.462 10.6251C139.734 10.6251 140.006 10.5808 140.278 10.4922C140.511 10.4036 140.744 10.315 140.977 10.1821C141.443 9.87194 141.831 9.47319 142.064 8.98585C142.336 8.49851 142.453 7.87825 142.453 7.2137C142.492 5.75168 141.754 4.51117 140.511 4.02383ZM140.977 7.30232C140.938 7.87825 140.783 8.36559 140.472 8.67572C140.239 8.89726 139.89 9.03017 139.462 9.07447C139.035 9.07447 138.724 8.94155 138.452 8.67572C138.142 8.36559 137.987 7.87825 137.947 7.30232C137.909 6.63777 138.142 6.1061 138.569 5.75168C138.802 5.57447 139.113 5.44155 139.423 5.44155C139.773 5.44155 140.045 5.57447 140.317 5.75168C140.783 6.06181 141.016 6.63777 140.977 7.30232Z" fill="black"/>
<path id="Path_10" d="M134.646 4.33402C134.336 4.06822 133.947 3.891 133.481 3.84668C133.404 3.84668 133.287 3.84668 133.209 3.84668C132.588 3.84668 132.044 4.15681 131.578 4.77706L131.501 4.90998H131.345C131.229 4.68847 131.073 4.51126 130.918 4.37834C130.607 4.11251 130.219 3.9353 129.753 3.891C129.015 3.80238 128.432 4.06822 127.927 4.68847V4.02392H126.335V10.5366H127.927V7.12517V7.03655C127.927 6.3277 128.005 6.15049 128.122 5.92898C128.316 5.57453 128.665 5.35302 129.054 5.39732C129.442 5.39732 129.792 5.61886 129.986 5.97328C130.141 6.23908 130.141 6.54921 130.141 6.85934V10.4923H131.734V6.99226C131.734 6.3277 131.811 6.1062 131.928 5.88466C132.122 5.53024 132.471 5.35302 132.86 5.35302C133.248 5.35302 133.559 5.57453 133.753 5.92898C133.87 6.15049 133.909 6.41632 133.909 6.59354C133.909 6.68213 133.909 6.77075 133.909 6.81504V10.448H135.501V6.46062C135.501 6.1062 135.462 5.75174 135.384 5.44162C135.229 4.9986 134.996 4.59985 134.646 4.33402Z" fill="black"/>
<path id="Shape_6" d="M155.075 8.49847C154.842 8.7643 154.298 9.25164 153.56 9.29594C152.939 9.34023 152.473 9.11872 152.123 8.72C151.968 8.54276 151.851 8.27696 151.774 8.01113H156.162V7.96683C156.201 7.701 156.24 7.47949 156.24 7.21366C156.24 6.99215 156.201 6.68202 156.124 6.28328C155.929 5.5301 155.541 4.95417 155.036 4.51113C154.454 4.02379 153.91 3.89087 153.754 3.89087C152.628 3.66936 151.347 4.2453 150.686 5.44151C150.22 6.28328 150.259 7.12504 150.259 7.39087C150.259 7.701 150.298 8.67568 150.997 9.56177C151.813 10.5807 152.939 10.625 153.288 10.6694C154.842 10.7137 155.891 9.60606 156.124 9.38455L155.075 8.49847ZM152.356 5.75164C152.589 5.57443 152.861 5.44151 153.211 5.44151C153.56 5.44151 153.832 5.57443 154.104 5.75164C154.337 5.97315 154.531 6.23898 154.648 6.54911H151.851C151.89 6.23898 152.084 5.92885 152.356 5.75164Z" fill="black"/>
</g>
<path id="Shape_7" d="M12.0666 1.84482L8.18125 12.4054H5.63899L3.7203 3.97882C3.62437 3.48636 3.48047 3.26749 3.1447 3.04861C2.56909 2.72031 1.60975 2.33728 0.794312 2.17313L0.842279 1.84482H4.91948C5.44712 1.84482 5.92679 2.22784 6.02273 2.93918L7.03004 9.0676L9.52433 1.89954H12.0666V1.84482ZM21.9958 8.95816C21.9958 6.16754 18.6381 6.00339 18.6381 4.79959C18.6381 4.41657 18.9738 4.03354 19.6454 3.9241C19.9812 3.86939 20.9405 3.81467 21.9958 4.41657L22.4275 2.17313C21.8519 1.95425 21.1324 1.68066 20.173 1.68066C17.8226 1.68066 16.1438 3.10333 16.1438 5.18262C16.1438 6.71472 17.343 7.53549 18.2543 8.02796C19.1657 8.52042 19.5015 8.84873 19.5015 9.34119C19.5015 10.0525 18.782 10.3808 18.0625 10.3808C16.8633 10.3808 16.1438 9.99781 15.6161 9.72421L15.1844 12.0224C15.76 12.296 16.7674 12.5696 17.8226 12.5696C20.3169 12.5696 21.9478 11.1469 21.9958 8.95816ZM28.2315 12.4054H30.438L28.5193 1.84482H26.4567C25.977 1.84482 25.5933 2.17313 25.4494 2.61087L21.8519 12.4054H24.3462L24.8258 10.8186H27.8957L28.2315 12.4054ZM25.5453 8.68457L26.7925 4.74487L27.512 8.68457H25.5453ZM15.4722 1.84482L13.5056 12.4054H11.1072L13.0739 1.84482H15.4722Z" fill="#1A1F71"/>
</g>
</g>
</g>
</g>
<defs>
<linearGradient id="paint0_linear_36_485" x1="87.5167" y1="205.902" x2="1088.18" y2="205.902" gradientUnits="userSpaceOnUse">
<stop stop-color="#00A3E1"/>
<stop offset="0.592667" stop-color="#008CD8"/>
<stop offset="1" stop-color="#0076CF"/>
</linearGradient>
<linearGradient id="paint1_linear_36_485" x1="87.5167" y1="205.902" x2="1088.18" y2="205.902" gradientUnits="userSpaceOnUse">
<stop stop-color="#00A3E1"/>
<stop offset="0.592667" stop-color="#008CD8"/>
<stop offset="1" stop-color="#0076CF"/>
</linearGradient>
<clipPath id="clip0_36_485">
<rect width="195" height="14" fill="white" transform="translate(0.794312 0.125)"/>
</clipPath>
</defs>
</svg>
