<svg width="41" height="41" viewBox="0 0 41 41" fill="none" xmlns="http://www.w3.org/2000/svg">
<rect x="0.525024" y="1" width="39" height="39" rx="4.5" fill="#FBFBFB" stroke="#DFDFDF"/>
<g clip-path="url(#clip0_5_651)">
<path d="M9.95579 14.4907C10.7191 14.4907 11.8821 14.4907 12.5364 14.4907C12.8635 14.4907 13.1179 14.7088 13.2269 14.9996C13.5541 15.9446 14.281 18.0163 15.1169 19.4338C16.2437 21.2875 16.9706 21.978 17.4431 21.9053C17.9156 21.7963 17.7702 20.5605 17.7702 19.5792C17.7702 18.5978 17.8792 16.9259 17.4067 16.1626L16.6798 15.1086C16.4981 14.8542 16.6798 14.5271 16.9706 14.5271H21.1141C21.5139 14.5271 21.841 14.8542 21.841 15.254V20.5242C21.841 20.5242 22.0227 21.4692 23.0404 20.4878C24.0581 19.5065 25.1485 17.6892 26.0571 15.8355L26.4206 14.9632C26.5296 14.7088 26.7841 14.5271 27.0748 14.5271H29.7644C30.2733 14.5271 30.6367 15.0359 30.455 15.5084L30.1642 16.2717C30.1642 16.2717 29.1829 18.2344 28.1652 19.6155C27.1475 21.033 26.9294 21.3601 27.0748 21.7236C27.2202 22.0871 29.8371 24.5223 30.4914 25.6853C30.6731 26.0125 30.8185 26.3032 30.9639 26.5576C31.2183 27.0301 30.8548 27.648 30.3096 27.648H27.2566C27.0021 27.648 26.7477 27.5026 26.6387 27.2846L26.3479 26.8121C26.3479 26.8121 24.4942 24.6313 23.3675 23.9407C22.2044 23.2865 22.2408 24.2315 22.2408 24.2315V26.1578C22.2408 26.9575 21.5866 27.6117 20.7869 27.6117H20.06C20.06 27.6117 16.0619 27.6117 12.8635 22.8503C10.3556 19.143 9.51963 16.7442 9.22886 15.363C9.15617 14.9269 9.48329 14.4907 9.95579 14.4907Z" fill="#5181B8"/>
</g>
<defs>
<clipPath id="clip0_5_651">
<rect width="23.2615" height="23.2615" fill="white" transform="translate(8.50195 9.43848)"/>
</clipPath>
</defs>
</svg>
