<svg width="162" height="51" viewBox="0 0 162 51" fill="none" xmlns="http://www.w3.org/2000/svg">
<rect x="0.00012207" y="0.383179" width="162" height="50" rx="25" fill="#039BE5"/>
<path d="M62.588 22.0245H59.228V20.8065H67.334V22.0245H63.974V30.6065H62.588V22.0245ZM74.6032 26.9385C74.6032 27.0412 74.5938 27.1765 74.5752 27.3445H68.5552C68.6392 27.9979 68.9238 28.5252 69.4092 28.9265C69.9038 29.3185 70.5152 29.5145 71.2432 29.5145C72.1298 29.5145 72.8438 29.2159 73.3852 28.6185L74.1272 29.4865C73.7912 29.8785 73.3712 30.1772 72.8672 30.3825C72.3725 30.5879 71.8172 30.6905 71.2012 30.6905C70.4172 30.6905 69.7218 30.5319 69.1152 30.2145C68.5085 29.8879 68.0372 29.4352 67.7012 28.8565C67.3745 28.2779 67.2112 27.6245 67.2112 26.8965C67.2112 26.1779 67.3698 25.5292 67.6872 24.9505C68.0138 24.3719 68.4572 23.9239 69.0172 23.6065C69.5865 23.2799 70.2258 23.1165 70.9352 23.1165C71.6445 23.1165 72.2745 23.2799 72.8252 23.6065C73.3852 23.9239 73.8192 24.3719 74.1272 24.9505C74.4445 25.5292 74.6032 26.1919 74.6032 26.9385ZM70.9352 24.2505C70.2912 24.2505 69.7498 24.4465 69.3112 24.8385C68.8818 25.2305 68.6298 25.7439 68.5552 26.3785H73.3152C73.2405 25.7532 72.9838 25.2445 72.5452 24.8525C72.1158 24.4512 71.5792 24.2505 70.9352 24.2505ZM76.4694 20.2185H77.8134V30.6065H76.4694V20.2185ZM87.0856 26.9385C87.0856 27.0412 87.0763 27.1765 87.0576 27.3445H81.0376C81.1216 27.9979 81.4063 28.5252 81.8916 28.9265C82.3863 29.3185 82.9976 29.5145 83.7256 29.5145C84.6123 29.5145 85.3263 29.2159 85.8676 28.6185L86.6096 29.4865C86.2736 29.8785 85.8536 30.1772 85.3496 30.3825C84.8549 30.5879 84.2996 30.6905 83.6836 30.6905C82.8996 30.6905 82.2043 30.5319 81.5976 30.2145C80.9909 29.8879 80.5196 29.4352 80.1836 28.8565C79.8569 28.2779 79.6936 27.6245 79.6936 26.8965C79.6936 26.1779 79.8523 25.5292 80.1696 24.9505C80.4963 24.3719 80.9396 23.9239 81.4996 23.6065C82.0689 23.2799 82.7083 23.1165 83.4176 23.1165C84.1269 23.1165 84.7569 23.2799 85.3076 23.6065C85.8676 23.9239 86.3016 24.3719 86.6096 24.9505C86.9269 25.5292 87.0856 26.1919 87.0856 26.9385ZM83.4176 24.2505C82.7736 24.2505 82.2323 24.4465 81.7936 24.8385C81.3643 25.2305 81.1123 25.7439 81.0376 26.3785H85.7976C85.7229 25.7532 85.4663 25.2445 85.0276 24.8525C84.5983 24.4512 84.0616 24.2505 83.4176 24.2505ZM96.0499 23.1865V29.5985C96.0499 30.8959 95.7279 31.8525 95.0839 32.4685C94.4399 33.0939 93.4785 33.4065 92.1999 33.4065C91.4999 33.4065 90.8325 33.3085 90.1979 33.1125C89.5632 32.9259 89.0499 32.6552 88.6579 32.3005L89.3019 31.2645C89.6472 31.5632 90.0719 31.7965 90.5759 31.9645C91.0892 32.1419 91.6165 32.2305 92.1579 32.2305C93.0259 32.2305 93.6652 32.0252 94.0759 31.6145C94.4959 31.2039 94.7059 30.5785 94.7059 29.7385V29.1505C94.3885 29.5332 93.9965 29.8225 93.5299 30.0185C93.0725 30.2052 92.5732 30.2985 92.0319 30.2985C91.3225 30.2985 90.6785 30.1492 90.0999 29.8505C89.5305 29.5425 89.0825 29.1179 88.7559 28.5765C88.4292 28.0259 88.2659 27.4005 88.2659 26.7005C88.2659 26.0005 88.4292 25.3799 88.7559 24.8385C89.0825 24.2879 89.5305 23.8632 90.0999 23.5645C90.6785 23.2659 91.3225 23.1165 92.0319 23.1165C92.5919 23.1165 93.1099 23.2192 93.5859 23.4245C94.0712 23.6299 94.4679 23.9332 94.7759 24.3345V23.1865H96.0499ZM92.1859 29.1225C92.6712 29.1225 93.1052 29.0199 93.4879 28.8145C93.8799 28.6092 94.1832 28.3245 94.3979 27.9605C94.6219 27.5872 94.7339 27.1672 94.7339 26.7005C94.7339 25.9819 94.4959 25.4032 94.0199 24.9645C93.5439 24.5165 92.9325 24.2925 92.1859 24.2925C91.4299 24.2925 90.8139 24.5165 90.3379 24.9645C89.8619 25.4032 89.6239 25.9819 89.6239 26.7005C89.6239 27.1672 89.7312 27.5872 89.9459 27.9605C90.1699 28.3245 90.4732 28.6092 90.8559 28.8145C91.2479 29.0199 91.6912 29.1225 92.1859 29.1225ZM99.9059 24.4325C100.139 24.0032 100.485 23.6765 100.942 23.4525C101.399 23.2285 101.955 23.1165 102.608 23.1165V24.4185C102.533 24.4092 102.431 24.4045 102.3 24.4045C101.572 24.4045 100.998 24.6239 100.578 25.0625C100.167 25.4919 99.9619 26.1079 99.9619 26.9105V30.6065H98.6179V23.1865H99.9059V24.4325ZM106.953 23.1165C107.979 23.1165 108.763 23.3685 109.305 23.8725C109.855 24.3765 110.131 25.1279 110.131 26.1265V30.6065H108.857V29.6265C108.633 29.9719 108.311 30.2379 107.891 30.4245C107.48 30.6019 106.99 30.6905 106.421 30.6905C105.59 30.6905 104.923 30.4899 104.419 30.0885C103.924 29.6872 103.677 29.1599 103.677 28.5065C103.677 27.8532 103.915 27.3305 104.391 26.9385C104.867 26.5372 105.623 26.3365 106.659 26.3365H108.787V26.0705C108.787 25.4919 108.619 25.0485 108.283 24.7405C107.947 24.4325 107.452 24.2785 106.799 24.2785C106.36 24.2785 105.931 24.3532 105.511 24.5025C105.091 24.6425 104.736 24.8339 104.447 25.0765L103.887 24.0685C104.269 23.7605 104.727 23.5272 105.259 23.3685C105.791 23.2005 106.355 23.1165 106.953 23.1165ZM106.645 29.6545C107.158 29.6545 107.601 29.5425 107.975 29.3185C108.348 29.0852 108.619 28.7585 108.787 28.3385V27.3025H106.715C105.576 27.3025 105.007 27.6852 105.007 28.4505C105.007 28.8239 105.151 29.1179 105.441 29.3325C105.73 29.5472 106.131 29.6545 106.645 29.6545ZM121.9 23.1165C122.833 23.1165 123.571 23.3872 124.112 23.9285C124.663 24.4699 124.938 25.2725 124.938 26.3365V30.6065H123.594V26.4905C123.594 25.7719 123.426 25.2305 123.09 24.8665C122.763 24.5025 122.292 24.3205 121.676 24.3205C120.995 24.3205 120.453 24.5352 120.052 24.9645C119.651 25.3845 119.45 25.9912 119.45 26.7845V30.6065H118.106V26.4905C118.106 25.7719 117.938 25.2305 117.602 24.8665C117.275 24.5025 116.804 24.3205 116.188 24.3205C115.507 24.3205 114.965 24.5352 114.564 24.9645C114.163 25.3845 113.962 25.9912 113.962 26.7845V30.6065H112.618V23.1865H113.906V24.2925C114.177 23.9099 114.531 23.6205 114.97 23.4245C115.409 23.2192 115.908 23.1165 116.468 23.1165C117.047 23.1165 117.56 23.2332 118.008 23.4665C118.456 23.6999 118.801 24.0405 119.044 24.4885C119.324 24.0592 119.711 23.7232 120.206 23.4805C120.71 23.2379 121.275 23.1165 121.9 23.1165Z" fill="white"/>
<g clip-path="url(#clip0_35_83)">
<path d="M29.4551 28.0183L29.1408 32.439C29.5905 32.439 29.7853 32.2458 30.0188 32.0138L32.127 29.999L36.4954 33.1982C37.2966 33.6447 37.861 33.4095 38.0772 32.4611L40.9446 19.025L40.9454 19.0242C41.1995 17.8398 40.5171 17.3767 39.7365 17.6672L22.8819 24.1201C21.7316 24.5666 21.749 25.2079 22.6864 25.4984L26.9954 26.8387L37.0045 20.5758C37.4755 20.2639 37.9038 20.4365 37.5515 20.7484L29.4551 28.0183Z" fill="white"/>
</g>
<defs>
<clipPath id="clip0_35_83">
<rect width="19" height="19" fill="white" transform="translate(22 16)"/>
</clipPath>
</defs>
</svg>
