<svg width="169" height="69" viewBox="0 0 169 69" fill="none" xmlns="http://www.w3.org/2000/svg">
<g filter="url(#filter0_d_5_497)">
<rect x="4.07684" y="0.824707" width="160.615" height="59.8154" rx="9" fill="white"/>
<path d="M66.5345 26.2232H62.8445V25.2632H71.3345V26.2232H67.6445V35.7632H66.5345V26.2232ZM78.9325 32.1482H72.3325C72.3925 32.9682 72.7075 33.6332 73.2775 34.1432C73.8475 34.6432 74.5675 34.8932 75.4375 34.8932C75.9275 34.8932 76.3775 34.8082 76.7875 34.6382C77.1975 34.4582 77.5525 34.1982 77.8525 33.8582L78.4525 34.5482C78.1025 34.9682 77.6625 35.2882 77.1325 35.5082C76.6125 35.7282 76.0375 35.8382 75.4075 35.8382C74.5975 35.8382 73.8775 35.6682 73.2475 35.3282C72.6275 34.9782 72.1425 34.4982 71.7925 33.8882C71.4425 33.2782 71.2675 32.5882 71.2675 31.8182C71.2675 31.0482 71.4325 30.3582 71.7625 29.7482C72.1025 29.1382 72.5625 28.6632 73.1425 28.3232C73.7325 27.9832 74.3925 27.8132 75.1225 27.8132C75.8525 27.8132 76.5075 27.9832 77.0875 28.3232C77.6675 28.6632 78.1225 29.1382 78.4525 29.7482C78.7825 30.3482 78.9475 31.0382 78.9475 31.8182L78.9325 32.1482ZM75.1225 28.7282C74.3625 28.7282 73.7225 28.9732 73.2025 29.4632C72.6925 29.9432 72.4025 30.5732 72.3325 31.3532H77.9275C77.8575 30.5732 77.5625 29.9432 77.0425 29.4632C76.5325 28.9732 75.8925 28.7282 75.1225 28.7282ZM81.1152 24.6332H82.1802V35.7632H81.1152V24.6332ZM92.0136 32.1482H85.4136C85.4736 32.9682 85.7886 33.6332 86.3586 34.1432C86.9286 34.6432 87.6486 34.8932 88.5186 34.8932C89.0086 34.8932 89.4586 34.8082 89.8686 34.6382C90.2786 34.4582 90.6336 34.1982 90.9336 33.8582L91.5336 34.5482C91.1836 34.9682 90.7436 35.2882 90.2136 35.5082C89.6936 35.7282 89.1186 35.8382 88.4886 35.8382C87.6786 35.8382 86.9586 35.6682 86.3286 35.3282C85.7086 34.9782 85.2236 34.4982 84.8736 33.8882C84.5236 33.2782 84.3486 32.5882 84.3486 31.8182C84.3486 31.0482 84.5136 30.3582 84.8436 29.7482C85.1836 29.1382 85.6436 28.6632 86.2236 28.3232C86.8136 27.9832 87.4736 27.8132 88.2036 27.8132C88.9336 27.8132 89.5886 27.9832 90.1686 28.3232C90.7486 28.6632 91.2036 29.1382 91.5336 29.7482C91.8636 30.3482 92.0286 31.0382 92.0286 31.8182L92.0136 32.1482ZM88.2036 28.7282C87.4436 28.7282 86.8036 28.9732 86.2836 29.4632C85.7736 29.9432 85.4836 30.5732 85.4136 31.3532H91.0086C90.9386 30.5732 90.6436 29.9432 90.1236 29.4632C89.6136 28.9732 88.9736 28.7282 88.2036 28.7282ZM101.501 27.8732V34.8032C101.501 36.1432 101.171 37.1332 100.511 37.7732C99.8613 38.4232 98.8763 38.7482 97.5563 38.7482C96.8263 38.7482 96.1313 38.6382 95.4713 38.4182C94.8213 38.2082 94.2913 37.9132 93.8813 37.5332L94.4213 36.7232C94.8013 37.0632 95.2613 37.3282 95.8013 37.5182C96.3513 37.7082 96.9263 37.8032 97.5263 37.8032C98.5263 37.8032 99.2613 37.5682 99.7313 37.0982C100.201 36.6382 100.436 35.9182 100.436 34.9382V33.9332C100.106 34.4332 99.6713 34.8132 99.1313 35.0732C98.6013 35.3332 98.0113 35.4632 97.3613 35.4632C96.6213 35.4632 95.9463 35.3032 95.3363 34.9832C94.7363 34.6532 94.2613 34.1982 93.9113 33.6182C93.5713 33.0282 93.4013 32.3632 93.4013 31.6232C93.4013 30.8832 93.5713 30.2232 93.9113 29.6432C94.2613 29.0632 94.7363 28.6132 95.3363 28.2932C95.9363 27.9732 96.6113 27.8132 97.3613 27.8132C98.0313 27.8132 98.6363 27.9482 99.1763 28.2182C99.7163 28.4882 100.151 28.8782 100.481 29.3882V27.8732H101.501ZM97.4663 34.5182C98.0363 34.5182 98.5513 34.3982 99.0113 34.1582C99.4713 33.9082 99.8263 33.5632 100.076 33.1232C100.336 32.6832 100.466 32.1832 100.466 31.6232C100.466 31.0632 100.336 30.5682 100.076 30.1382C99.8263 29.6982 99.4713 29.3582 99.0113 29.1182C98.5613 28.8682 98.0463 28.7432 97.4663 28.7432C96.8963 28.7432 96.3813 28.8632 95.9213 29.1032C95.4713 29.3432 95.1163 29.6832 94.8563 30.1232C94.6063 30.5632 94.4813 31.0632 94.4813 31.6232C94.4813 32.1832 94.6063 32.6832 94.8563 33.1232C95.1163 33.5632 95.4713 33.9082 95.9213 34.1582C96.3813 34.3982 96.8963 34.5182 97.4663 34.5182ZM105.5 29.4182C105.75 28.8882 106.12 28.4882 106.61 28.2182C107.11 27.9482 107.725 27.8132 108.455 27.8132V28.8482L108.2 28.8332C107.37 28.8332 106.72 29.0882 106.25 29.5982C105.78 30.1082 105.545 30.8232 105.545 31.7432V35.7632H104.48V27.8732H105.5V29.4182ZM113.128 27.8132C114.158 27.8132 114.948 28.0732 115.498 28.5932C116.048 29.1032 116.323 29.8632 116.323 30.8732V35.7632H115.303V34.5332C115.063 34.9432 114.708 35.2632 114.238 35.4932C113.778 35.7232 113.228 35.8382 112.588 35.8382C111.708 35.8382 111.008 35.6282 110.488 35.2082C109.968 34.7882 109.708 34.2332 109.708 33.5432C109.708 32.8732 109.948 32.3332 110.428 31.9232C110.918 31.5132 111.693 31.3082 112.753 31.3082H115.258V30.8282C115.258 30.1482 115.068 29.6332 114.688 29.2832C114.308 28.9232 113.753 28.7432 113.023 28.7432C112.523 28.7432 112.043 28.8282 111.583 28.9982C111.123 29.1582 110.728 29.3832 110.398 29.6732L109.918 28.8782C110.318 28.5382 110.798 28.2782 111.358 28.0982C111.918 27.9082 112.508 27.8132 113.128 27.8132ZM112.753 34.9982C113.353 34.9982 113.868 34.8632 114.298 34.5932C114.728 34.3132 115.048 33.9132 115.258 33.3932V32.1032H112.783C111.433 32.1032 110.758 32.5732 110.758 33.5132C110.758 33.9732 110.933 34.3382 111.283 34.6082C111.633 34.8682 112.123 34.9982 112.753 34.9982ZM129.056 27.8132C130.046 27.8132 130.821 28.0982 131.381 28.6682C131.951 29.2382 132.236 30.0782 132.236 31.1882V35.7632H131.171V31.2932C131.171 30.4732 130.971 29.8482 130.571 29.4182C130.181 28.9882 129.626 28.7732 128.906 28.7732C128.086 28.7732 127.441 29.0282 126.971 29.5382C126.501 30.0382 126.266 30.7332 126.266 31.6232V35.7632H125.201V31.2932C125.201 30.4732 125.001 29.8482 124.601 29.4182C124.211 28.9882 123.651 28.7732 122.921 28.7732C122.111 28.7732 121.466 29.0282 120.986 29.5382C120.516 30.0382 120.281 30.7332 120.281 31.6232V35.7632H119.216V27.8732H120.236V29.3132C120.516 28.8332 120.906 28.4632 121.406 28.2032C121.906 27.9432 122.481 27.8132 123.131 27.8132C123.791 27.8132 124.361 27.9532 124.841 28.2332C125.331 28.5132 125.696 28.9282 125.936 29.4782C126.226 28.9582 126.641 28.5532 127.181 28.2632C127.731 27.9632 128.356 27.8132 129.056 27.8132Z" fill="#1C1C1B"/>
<path d="M50.585 24.801L47.7316 38.2578C47.5163 39.2076 46.9549 39.4439 46.157 38.9966L41.8094 35.7927L39.7116 37.8104C39.4795 38.0426 39.2853 38.2368 38.8378 38.2368L39.1502 33.8088L47.2082 26.5274C47.5585 26.2151 47.1322 26.042 46.6636 26.3544L36.702 32.6269L32.4134 31.2846C31.4805 30.9933 31.4637 30.3517 32.6075 29.9043L49.382 23.4419C50.1586 23.1506 50.8382 23.6149 50.585 24.801Z" fill="#20A0E1"/>
</g>
<defs>
<filter id="filter0_d_5_497" x="0.0768433" y="0.824707" width="168.615" height="67.8154" filterUnits="userSpaceOnUse" color-interpolation-filters="sRGB">
<feFlood flood-opacity="0" result="BackgroundImageFix"/>
<feColorMatrix in="SourceAlpha" type="matrix" values="0 0 0 0 0 0 0 0 0 0 0 0 0 0 0 0 0 0 127 0" result="hardAlpha"/>
<feOffset dy="4"/>
<feGaussianBlur stdDeviation="2"/>
<feComposite in2="hardAlpha" operator="out"/>
<feColorMatrix type="matrix" values="0 0 0 0 0 0 0 0 0 0 0 0 0 0 0 0 0 0 0.13 0"/>
<feBlend mode="normal" in2="BackgroundImageFix" result="effect1_dropShadow_5_497"/>
<feBlend mode="normal" in="SourceGraphic" in2="effect1_dropShadow_5_497" result="shape"/>
</filter>
</defs>
</svg>
