<svg width="175" height="69" viewBox="0 0 175 69" fill="none" xmlns="http://www.w3.org/2000/svg">
<g filter="url(#filter0_d_5_491)">
<rect x="4.41531" y="0.824707" width="166.154" height="59.8154" rx="9" fill="white"/>
<path d="M73.563 25.2632L68.913 35.7632H67.818L63.168 25.2632H64.368L68.388 34.3832L72.438 25.2632H73.563ZM78.0066 31.8032L76.1466 33.5132V35.7632H75.0816V24.6332H76.1466V32.1782L80.8566 27.8732H82.1766L78.8016 31.0982L82.4916 35.7632H81.1866L78.0066 31.8032ZM86.9932 35.8382C86.2332 35.8382 85.5482 35.6682 84.9382 35.3282C84.3282 34.9782 83.8482 34.4982 83.4982 33.8882C83.1482 33.2782 82.9732 32.5882 82.9732 31.8182C82.9732 31.0482 83.1482 30.3582 83.4982 29.7482C83.8482 29.1382 84.3282 28.6632 84.9382 28.3232C85.5482 27.9832 86.2332 27.8132 86.9932 27.8132C87.7532 27.8132 88.4382 27.9832 89.0482 28.3232C89.6582 28.6632 90.1332 29.1382 90.4732 29.7482C90.8232 30.3582 90.9982 31.0482 90.9982 31.8182C90.9982 32.5882 90.8232 33.2782 90.4732 33.8882C90.1332 34.4982 89.6582 34.9782 89.0482 35.3282C88.4382 35.6682 87.7532 35.8382 86.9932 35.8382ZM86.9932 34.8932C87.5532 34.8932 88.0532 34.7682 88.4932 34.5182C88.9432 34.2582 89.2932 33.8932 89.5432 33.4232C89.7932 32.9532 89.9182 32.4182 89.9182 31.8182C89.9182 31.2182 89.7932 30.6832 89.5432 30.2132C89.2932 29.7432 88.9432 29.3832 88.4932 29.1332C88.0532 28.8732 87.5532 28.7432 86.9932 28.7432C86.4332 28.7432 85.9282 28.8732 85.4782 29.1332C85.0382 29.3832 84.6882 29.7432 84.4282 30.2132C84.1782 30.6832 84.0532 31.2182 84.0532 31.8182C84.0532 32.4182 84.1782 32.9532 84.4282 33.4232C84.6882 33.8932 85.0382 34.2582 85.4782 34.5182C85.9282 34.7682 86.4332 34.8932 86.9932 34.8932ZM97.1925 27.8132C98.1825 27.8132 98.9675 28.1032 99.5475 28.6832C100.137 29.2532 100.432 30.0882 100.432 31.1882V35.7632H99.3675V31.2932C99.3675 30.4732 99.1625 29.8482 98.7525 29.4182C98.3425 28.9882 97.7575 28.7732 96.9975 28.7732C96.1475 28.7732 95.4725 29.0282 94.9725 29.5382C94.4825 30.0382 94.2375 30.7332 94.2375 31.6232V35.7632H93.1725V27.8732H94.1925V29.3282C94.4825 28.8482 94.8825 28.4782 95.3925 28.2182C95.9125 27.9482 96.5125 27.8132 97.1925 27.8132ZM107.479 35.2832C107.279 35.4632 107.029 35.6032 106.729 35.7032C106.439 35.7932 106.134 35.8382 105.814 35.8382C105.074 35.8382 104.504 35.6382 104.104 35.2382C103.704 34.8382 103.504 34.2732 103.504 33.5432V28.7732H102.094V27.8732H103.504V26.1482H104.569V27.8732H106.969V28.7732H104.569V33.4832C104.569 33.9532 104.684 34.3132 104.914 34.5632C105.154 34.8032 105.494 34.9232 105.934 34.9232C106.154 34.9232 106.364 34.8882 106.564 34.8182C106.774 34.7482 106.954 34.6482 107.104 34.5182L107.479 35.2832ZM112.178 27.8132C113.208 27.8132 113.998 28.0732 114.548 28.5932C115.098 29.1032 115.373 29.8632 115.373 30.8732V35.7632H114.353V34.5332C114.113 34.9432 113.758 35.2632 113.288 35.4932C112.828 35.7232 112.278 35.8382 111.638 35.8382C110.758 35.8382 110.058 35.6282 109.538 35.2082C109.018 34.7882 108.758 34.2332 108.758 33.5432C108.758 32.8732 108.998 32.3332 109.478 31.9232C109.968 31.5132 110.743 31.3082 111.803 31.3082H114.308V30.8282C114.308 30.1482 114.118 29.6332 113.738 29.2832C113.358 28.9232 112.803 28.7432 112.073 28.7432C111.573 28.7432 111.093 28.8282 110.633 28.9982C110.173 29.1582 109.778 29.3832 109.448 29.6732L108.968 28.8782C109.368 28.5382 109.848 28.2782 110.408 28.0982C110.968 27.9082 111.558 27.8132 112.178 27.8132ZM111.803 34.9982C112.403 34.9982 112.918 34.8632 113.348 34.5932C113.778 34.3132 114.098 33.9132 114.308 33.3932V32.1032H111.833C110.483 32.1032 109.808 32.5732 109.808 33.5132C109.808 33.9732 109.983 34.3382 110.333 34.6082C110.683 34.8682 111.173 34.9982 111.803 34.9982ZM121.19 31.8032L119.33 33.5132V35.7632H118.265V24.6332H119.33V32.1782L124.04 27.8732H125.36L121.985 31.0982L125.675 35.7632H124.37L121.19 31.8032ZM131.429 35.2832C131.229 35.4632 130.979 35.6032 130.679 35.7032C130.389 35.7932 130.084 35.8382 129.764 35.8382C129.024 35.8382 128.454 35.6382 128.054 35.2382C127.654 34.8382 127.454 34.2732 127.454 33.5432V28.7732H126.044V27.8732H127.454V26.1482H128.519V27.8732H130.919V28.7732H128.519V33.4832C128.519 33.9532 128.634 34.3132 128.864 34.5632C129.104 34.8032 129.444 34.9232 129.884 34.9232C130.104 34.9232 130.314 34.8882 130.514 34.8182C130.724 34.7482 130.904 34.6482 131.054 34.5182L131.429 35.2832ZM139.959 32.1482H133.359C133.419 32.9682 133.734 33.6332 134.304 34.1432C134.874 34.6432 135.594 34.8932 136.464 34.8932C136.954 34.8932 137.404 34.8082 137.814 34.6382C138.224 34.4582 138.579 34.1982 138.879 33.8582L139.479 34.5482C139.129 34.9682 138.689 35.2882 138.159 35.5082C137.639 35.7282 137.064 35.8382 136.434 35.8382C135.624 35.8382 134.904 35.6682 134.274 35.3282C133.654 34.9782 133.169 34.4982 132.819 33.8882C132.469 33.2782 132.294 32.5882 132.294 31.8182C132.294 31.0482 132.459 30.3582 132.789 29.7482C133.129 29.1382 133.589 28.6632 134.169 28.3232C134.759 27.9832 135.419 27.8132 136.149 27.8132C136.879 27.8132 137.534 27.9832 138.114 28.3232C138.694 28.6632 139.149 29.1382 139.479 29.7482C139.809 30.3482 139.974 31.0382 139.974 31.8182L139.959 32.1482ZM136.149 28.7282C135.389 28.7282 134.749 28.9732 134.229 29.4632C133.719 29.9432 133.429 30.5732 133.359 31.3532H138.954C138.884 30.5732 138.589 29.9432 138.069 29.4632C137.559 28.9732 136.919 28.7282 136.149 28.7282Z" fill="#1C1C1B"/>
<path d="M31.3461 25.8154C32.1094 25.8154 33.2724 25.8154 33.9267 25.8154C34.2538 25.8154 34.5082 26.0335 34.6172 26.3243C34.9444 27.2693 35.6713 29.341 36.5072 30.7585C37.634 32.6122 38.3609 33.3027 38.8334 33.23C39.3059 33.121 39.1605 31.8852 39.1605 30.9039C39.1605 29.9225 39.2696 28.2506 38.7971 27.4874L38.0701 26.4333C37.8884 26.1789 38.0701 25.8518 38.3609 25.8518H42.5044C42.9042 25.8518 43.2313 26.1789 43.2313 26.5787V31.8489C43.2313 31.8489 43.413 32.7939 44.4307 31.8125C45.4484 30.8312 46.5388 29.0139 47.4474 27.1602L47.8109 26.2879C47.9199 26.0335 48.1744 25.8518 48.4651 25.8518H51.1547C51.6636 25.8518 52.0271 26.3606 51.8453 26.8331L51.5546 27.5964C51.5546 27.5964 50.5732 29.5591 49.5555 30.9402C48.5378 32.3577 48.3197 32.6849 48.4651 33.0483C48.6105 33.4118 51.2274 35.847 51.8817 37.01C52.0634 37.3372 52.2088 37.6279 52.3542 37.8824C52.6086 38.3549 52.2451 38.9727 51.6999 38.9727H48.6469C48.3924 38.9727 48.138 38.8274 48.029 38.6093L47.7382 38.1368C47.7382 38.1368 45.8846 35.956 44.7578 35.2654C43.5947 34.6112 43.6311 35.5562 43.6311 35.5562V37.4825C43.6311 38.2822 42.9769 38.9364 42.1772 38.9364H41.4503C41.4503 38.9364 37.4522 38.9364 34.2538 34.175C31.7459 30.4677 30.9099 28.0689 30.6192 26.6877C30.5465 26.2516 30.8736 25.8154 31.3461 25.8154Z" fill="#5181B8"/>
</g>
<defs>
<filter id="filter0_d_5_491" x="0.415314" y="0.824707" width="174.154" height="67.8154" filterUnits="userSpaceOnUse" color-interpolation-filters="sRGB">
<feFlood flood-opacity="0" result="BackgroundImageFix"/>
<feColorMatrix in="SourceAlpha" type="matrix" values="0 0 0 0 0 0 0 0 0 0 0 0 0 0 0 0 0 0 127 0" result="hardAlpha"/>
<feOffset dy="4"/>
<feGaussianBlur stdDeviation="2"/>
<feComposite in2="hardAlpha" operator="out"/>
<feColorMatrix type="matrix" values="0 0 0 0 0 0 0 0 0 0 0 0 0 0 0 0 0 0 0.13 0"/>
<feBlend mode="normal" in2="BackgroundImageFix" result="effect1_dropShadow_5_491"/>
<feBlend mode="normal" in="SourceGraphic" in2="effect1_dropShadow_5_491" result="shape"/>
</filter>
</defs>
</svg>
