<svg width="162" height="51" viewBox="0 0 162 51" fill="none" xmlns="http://www.w3.org/2000/svg">
<rect y="0.383179" width="162" height="50" rx="25" fill="#4CAF50"/>
<path d="M74.4879 20.8065L71.2119 30.6065H69.7419L67.0679 22.7805L64.3939 30.6065H62.8959L59.6199 20.8065H61.0619L63.7079 28.7725L66.4659 20.8065H67.7539L70.4559 28.8145L73.1579 20.8065H74.4879ZM80.1715 23.1165C81.1142 23.1165 81.8609 23.3919 82.4115 23.9425C82.9715 24.4839 83.2515 25.2819 83.2515 26.3365V30.6065H81.9075V26.4905C81.9075 25.7719 81.7349 25.2305 81.3895 24.8665C81.0442 24.5025 80.5495 24.3205 79.9055 24.3205C79.1775 24.3205 78.6035 24.5352 78.1835 24.9645C77.7635 25.3845 77.5535 25.9912 77.5535 26.7845V30.6065H76.2095V20.2185H77.5535V24.2365C77.8335 23.8819 78.1975 23.6065 78.6455 23.4105C79.1029 23.2145 79.6115 23.1165 80.1715 23.1165ZM88.4408 23.1165C89.4675 23.1165 90.2515 23.3685 90.7928 23.8725C91.3435 24.3765 91.6188 25.1279 91.6188 26.1265V30.6065H90.3448V29.6265C90.1208 29.9719 89.7988 30.2379 89.3788 30.4245C88.9682 30.6019 88.4782 30.6905 87.9088 30.6905C87.0782 30.6905 86.4108 30.4899 85.9068 30.0885C85.4122 29.6872 85.1648 29.1599 85.1648 28.5065C85.1648 27.8532 85.4028 27.3305 85.8788 26.9385C86.3548 26.5372 87.1108 26.3365 88.1468 26.3365H90.2748V26.0705C90.2748 25.4919 90.1068 25.0485 89.7708 24.7405C89.4348 24.4325 88.9402 24.2785 88.2868 24.2785C87.8482 24.2785 87.4188 24.3532 86.9988 24.5025C86.5788 24.6425 86.2242 24.8339 85.9348 25.0765L85.3748 24.0685C85.7575 23.7605 86.2148 23.5272 86.7468 23.3685C87.2788 23.2005 87.8435 23.1165 88.4408 23.1165ZM88.1328 29.6545C88.6462 29.6545 89.0895 29.5425 89.4628 29.3185C89.8362 29.0852 90.1068 28.7585 90.2748 28.3385V27.3025H88.2028C87.0642 27.3025 86.4948 27.6852 86.4948 28.4505C86.4948 28.8239 86.6395 29.1179 86.9288 29.3325C87.2182 29.5472 87.6195 29.6545 88.1328 29.6545ZM98.278 30.1725C98.082 30.3405 97.8394 30.4712 97.55 30.5645C97.2607 30.6485 96.962 30.6905 96.654 30.6905C95.9074 30.6905 95.3287 30.4899 94.918 30.0885C94.5074 29.6872 94.302 29.1132 94.302 28.3665V24.2925H93.042V23.1865H94.302V21.5625H95.646V23.1865H97.774V24.2925H95.646V28.3105C95.646 28.7119 95.744 29.0199 95.94 29.2345C96.1454 29.4492 96.4347 29.5565 96.808 29.5565C97.2187 29.5565 97.5687 29.4399 97.858 29.2065L98.278 30.1725ZM102.031 30.6905C101.424 30.6905 100.841 30.6112 100.281 30.4525C99.7209 30.2845 99.2822 30.0745 98.9649 29.8225L99.5249 28.7585C99.8516 28.9919 100.248 29.1785 100.715 29.3185C101.182 29.4585 101.653 29.5285 102.129 29.5285C103.305 29.5285 103.893 29.1925 103.893 28.5205C103.893 28.2965 103.814 28.1192 103.655 27.9885C103.496 27.8579 103.296 27.7645 103.053 27.7085C102.82 27.6432 102.484 27.5732 102.045 27.4985C101.448 27.4052 100.958 27.2979 100.575 27.1765C100.202 27.0552 99.8796 26.8499 99.6089 26.5605C99.3382 26.2712 99.2029 25.8652 99.2029 25.3425C99.2029 24.6705 99.4829 24.1339 100.043 23.7325C100.603 23.3219 101.354 23.1165 102.297 23.1165C102.792 23.1165 103.286 23.1772 103.781 23.2985C104.276 23.4199 104.682 23.5832 104.999 23.7885L104.425 24.8525C103.818 24.4605 103.104 24.2645 102.283 24.2645C101.714 24.2645 101.28 24.3579 100.981 24.5445C100.682 24.7312 100.533 24.9785 100.533 25.2865C100.533 25.5292 100.617 25.7205 100.785 25.8605C100.953 26.0005 101.158 26.1032 101.401 26.1685C101.653 26.2339 102.003 26.3085 102.451 26.3925C103.048 26.4952 103.529 26.6072 103.893 26.7285C104.266 26.8405 104.584 27.0365 104.845 27.3165C105.106 27.5965 105.237 27.9885 105.237 28.4925C105.237 29.1645 104.948 29.7012 104.369 30.1025C103.8 30.4945 103.02 30.6905 102.031 30.6905ZM113.357 28.1565H108.149L107.071 30.6065H105.629L110.067 20.8065H111.453L115.905 30.6065H114.435L113.357 28.1565ZM112.867 27.0365L110.753 22.2345L108.639 27.0365H112.867ZM121.104 23.1165C121.823 23.1165 122.467 23.2752 123.036 23.5925C123.606 23.9099 124.049 24.3532 124.366 24.9225C124.693 25.4919 124.856 26.1499 124.856 26.8965C124.856 27.6432 124.693 28.3059 124.366 28.8845C124.049 29.4539 123.606 29.8972 123.036 30.2145C122.467 30.5319 121.823 30.6905 121.104 30.6905C120.572 30.6905 120.082 30.5879 119.634 30.3825C119.196 30.1772 118.822 29.8785 118.514 29.4865V33.3225H117.17V23.1865H118.458V24.3625C118.757 23.9519 119.135 23.6439 119.592 23.4385C120.05 23.2239 120.554 23.1165 121.104 23.1165ZM120.992 29.5145C121.468 29.5145 121.893 29.4072 122.266 29.1925C122.649 28.9685 122.948 28.6605 123.162 28.2685C123.386 27.8672 123.498 27.4099 123.498 26.8965C123.498 26.3832 123.386 25.9305 123.162 25.5385C122.948 25.1372 122.649 24.8292 122.266 24.6145C121.893 24.3999 121.468 24.2925 120.992 24.2925C120.526 24.2925 120.101 24.4045 119.718 24.6285C119.345 24.8432 119.046 25.1465 118.822 25.5385C118.608 25.9305 118.5 26.3832 118.5 26.8965C118.5 27.4099 118.608 27.8672 118.822 28.2685C119.037 28.6605 119.336 28.9685 119.718 29.1925C120.101 29.4072 120.526 29.5145 120.992 29.5145ZM130.647 23.1165C131.366 23.1165 132.01 23.2752 132.579 23.5925C133.149 23.9099 133.592 24.3532 133.909 24.9225C134.236 25.4919 134.399 26.1499 134.399 26.8965C134.399 27.6432 134.236 28.3059 133.909 28.8845C133.592 29.4539 133.149 29.8972 132.579 30.2145C132.01 30.5319 131.366 30.6905 130.647 30.6905C130.115 30.6905 129.625 30.5879 129.177 30.3825C128.739 30.1772 128.365 29.8785 128.057 29.4865V33.3225H126.713V23.1865H128.001V24.3625C128.3 23.9519 128.678 23.6439 129.135 23.4385C129.593 23.2239 130.097 23.1165 130.647 23.1165ZM130.535 29.5145C131.011 29.5145 131.436 29.4072 131.809 29.1925C132.192 28.9685 132.491 28.6605 132.705 28.2685C132.929 27.8672 133.041 27.4099 133.041 26.8965C133.041 26.3832 132.929 25.9305 132.705 25.5385C132.491 25.1372 132.192 24.8292 131.809 24.6145C131.436 24.3999 131.011 24.2925 130.535 24.2925C130.069 24.2925 129.644 24.4045 129.261 24.6285C128.888 24.8432 128.589 25.1465 128.365 25.5385C128.151 25.9305 128.043 26.3832 128.043 26.8965C128.043 27.4099 128.151 27.8672 128.365 28.2685C128.58 28.6605 128.879 28.9685 129.261 29.1925C129.644 29.4072 130.069 29.5145 130.535 29.5145Z" fill="white"/>
<g clip-path="url(#clip0_35_49)">
<path d="M36.4247 13.8832H36.4189C30.0781 13.8832 24.9218 19.0409 24.9218 25.3832C24.9218 27.8988 25.7326 30.2304 27.1111 32.1236L25.6779 36.3959L30.0983 34.9828C31.9167 36.1874 34.0859 36.8832 36.4247 36.8832C42.7655 36.8832 47.9218 31.724 47.9218 25.3832C47.9218 19.0424 42.7655 13.8832 36.4247 13.8832ZM43.1163 30.1226C42.8388 30.9061 41.7377 31.5558 40.8594 31.7456C40.2585 31.8735 39.4736 31.9756 36.8315 30.8802C33.4519 29.4801 31.2756 26.0459 31.1059 25.8231C30.9435 25.6002 29.7403 24.0046 29.7403 22.3544C29.7403 20.7041 30.5784 19.9006 30.9162 19.5556C31.1936 19.2724 31.6522 19.143 32.0921 19.143C32.2344 19.143 32.3623 19.1502 32.4773 19.1559C32.8151 19.1703 32.9848 19.1904 33.2076 19.7237C33.485 20.3922 34.1606 22.0424 34.2411 22.2121C34.3231 22.3817 34.405 22.6117 34.29 22.8345C34.1822 23.0645 34.0873 23.1666 33.9177 23.3621C33.7481 23.5576 33.5871 23.7071 33.4174 23.9169C33.2622 24.0995 33.0868 24.295 33.2823 24.6328C33.4778 24.9634 34.1534 26.066 35.1482 26.9515C36.4319 28.0943 37.4726 28.4594 37.8449 28.6147C38.1224 28.7297 38.453 28.7024 38.6557 28.4867C38.913 28.2093 39.2307 27.7493 39.5541 27.2965C39.7841 26.9716 40.0745 26.9314 40.3793 27.0464C40.6898 27.1542 42.3328 27.9664 42.6706 28.1346C43.0084 28.3042 43.2313 28.3847 43.3132 28.527C43.3937 28.6693 43.3937 29.3377 43.1163 30.1226Z" fill="white"/>
</g>
<defs>
<clipPath id="clip0_35_49">
<rect width="23" height="23" fill="white" transform="translate(24.9218 13.8832)"/>
</clipPath>
</defs>
</svg>
