<svg width="41" height="41" viewBox="0 0 41 41" fill="none" xmlns="http://www.w3.org/2000/svg">
<rect x="0.555817" y="1" width="39" height="39" rx="4.5" fill="#FBFBFB" stroke="#DFDFDF"/>
<g clip-path="url(#clip0_5_665)">
<path d="M27.3752 12.5486C25.4205 10.5894 22.8176 9.51172 20.0512 9.51172C14.3413 9.51172 9.69496 14.1581 9.69496 19.8679C9.69496 21.6918 10.1708 23.4739 11.0758 25.046L9.60641 30.4107L15.097 28.9692C16.6085 29.7948 18.3111 30.2288 20.0465 30.2288H20.0512C25.7565 30.2288 30.5053 25.5824 30.5053 19.8726C30.5053 17.1062 29.3298 14.5079 27.3752 12.5486Z" fill="#2CB742"/>
<path d="M20.0512 28.4842C18.5024 28.4842 16.9863 28.069 15.6661 27.2853L15.3536 27.0987L12.0974 27.9523L12.9651 24.7755L12.7599 24.449C11.8969 23.0775 11.4443 21.4961 11.4443 19.868C11.4443 15.1237 15.3069 11.2612 20.0558 11.2612C22.3556 11.2612 24.5154 12.1569 26.1389 13.7849C27.7623 15.413 28.7606 17.5729 28.756 19.8727C28.756 24.6217 24.7953 28.4842 20.0512 28.4842Z" fill="#FBFBFB"/>
<path d="M24.7721 22.0369C24.5155 21.9064 23.2421 21.2811 23.0041 21.1973C22.7662 21.1086 22.5936 21.0667 22.421 21.3279C22.2484 21.5891 21.7539 22.1675 21.5999 22.3449C21.4507 22.5175 21.2967 22.5408 21.0402 22.4102C19.5194 21.6498 18.5211 21.0527 17.5182 19.3313C17.2523 18.8741 17.7841 18.9068 18.2785 17.9179C18.3626 17.7452 18.3206 17.5959 18.2552 17.4653C18.1899 17.3347 17.6721 16.0612 17.4575 15.5433C17.2476 15.0395 17.033 15.1095 16.8744 15.1002C16.7251 15.0908 16.5525 15.0908 16.3799 15.0908C16.2073 15.0908 15.9274 15.1562 15.6895 15.4127C15.4516 15.6739 14.7845 16.2991 14.7845 17.5726C14.7845 18.8461 15.7128 20.0777 15.8388 20.2503C15.9693 20.4228 17.6628 23.0353 20.2611 24.1595C21.9032 24.8686 22.547 24.9292 23.368 24.8079C23.8671 24.7333 24.8982 24.1828 25.1127 23.5764C25.3273 22.97 25.3273 22.4522 25.2619 22.3449C25.2013 22.2282 25.0286 22.1629 24.7721 22.0369Z" fill="#2CB742"/>
</g>
<defs>
<clipPath id="clip0_5_665">
<rect width="23.2615" height="23.2615" fill="white" transform="translate(9.53275 8.33057)"/>
</clipPath>
</defs>
</svg>
