<svg width="105" height="11" viewBox="0 0 105 11" fill="none" xmlns="http://www.w3.org/2000/svg">
<path d="M5.37828 10.664C4.52895 10.664 3.75328 10.4603 3.05128 10.053C2.35795 9.64567 1.80762 9.091 1.40028 8.389C1.00162 7.687 0.802282 6.91567 0.802282 6.075C0.802282 5.23433 1.00162 4.463 1.40028 3.761C1.80762 3.059 2.36228 2.50433 3.06428 2.097C3.76628 1.68967 4.54628 1.486 5.40428 1.486C6.26228 1.486 7.03795 1.68533 7.73128 2.084C8.43328 2.48267 8.98362 3.033 9.38228 3.735C9.78095 4.42833 9.98028 5.19967 9.98028 6.049C9.98028 6.89833 9.77662 7.67833 9.36928 8.389C8.96195 9.091 8.40728 9.64567 7.70528 10.053C7.00328 10.4603 6.22762 10.664 5.37828 10.664ZM5.37828 10.183C6.14095 10.183 6.83428 10.001 7.45828 9.637C8.08228 9.26433 8.57628 8.766 8.94028 8.142C9.30428 7.50933 9.48628 6.81167 9.48628 6.049C9.48628 5.28633 9.30862 4.59733 8.95328 3.982C8.59795 3.358 8.10828 2.86833 7.48428 2.513C6.86895 2.149 6.17562 1.967 5.40428 1.967C4.63295 1.967 3.93095 2.149 3.29828 2.513C2.67428 2.877 2.18028 3.37533 1.81628 4.008C1.46095 4.632 1.28328 5.321 1.28328 6.075C1.28328 6.829 1.46095 7.52233 1.81628 8.155C2.18028 8.779 2.67428 9.273 3.29828 9.637C3.92228 10.001 4.61562 10.183 5.37828 10.183ZM5.49528 8.779C4.98395 8.779 4.52028 8.66633 4.10428 8.441C3.69695 8.207 3.37628 7.88633 3.14228 7.479C2.90828 7.063 2.79128 6.595 2.79128 6.075C2.79128 5.555 2.90828 5.09133 3.14228 4.684C3.37628 4.268 3.69695 3.94733 4.10428 3.722C4.52028 3.488 4.98395 3.371 5.49528 3.371C5.93728 3.371 6.33595 3.462 6.69128 3.644C7.05528 3.81733 7.34562 4.06 7.56228 4.372L7.00328 4.788C6.82128 4.53667 6.60028 4.35033 6.34028 4.229C6.08028 4.10767 5.79428 4.047 5.48228 4.047C4.91895 4.047 4.45095 4.23333 4.07828 4.606C3.71428 4.97867 3.53228 5.46833 3.53228 6.075C3.53228 6.68167 3.71428 7.17133 4.07828 7.544C4.45095 7.91667 4.91895 8.103 5.48228 8.103C5.79428 8.103 6.08028 8.04233 6.34028 7.921C6.60028 7.79967 6.82128 7.61333 7.00328 7.362L7.56228 7.765C7.34562 8.08567 7.05528 8.337 6.69128 8.519C6.33595 8.69233 5.93728 8.779 5.49528 8.779ZM20.9303 9.793V10.625H14.5473V9.962L18.3303 6.257C18.807 5.789 19.1277 5.386 19.2923 5.048C19.4657 4.70133 19.5523 4.35467 19.5523 4.008C19.5523 3.47067 19.366 3.05467 18.9933 2.76C18.6293 2.45667 18.105 2.305 17.4203 2.305C16.3543 2.305 15.5267 2.643 14.9373 3.319L14.2743 2.747C14.6297 2.331 15.0803 2.01033 15.6263 1.785C16.181 1.55967 16.805 1.447 17.4983 1.447C18.4257 1.447 19.158 1.668 19.6953 2.11C20.2413 2.54333 20.5143 3.14133 20.5143 3.904C20.5143 4.372 20.4103 4.82267 20.2023 5.256C19.9943 5.68933 19.6 6.18767 19.0193 6.751L15.9253 9.793H20.9303ZM25.6812 10.703C24.9792 10.703 24.3509 10.5167 23.7962 10.144C23.2502 9.77133 22.8212 9.23833 22.5092 8.545C22.2059 7.843 22.0542 7.01967 22.0542 6.075C22.0542 5.13033 22.2059 4.31133 22.5092 3.618C22.8212 2.916 23.2502 2.37867 23.7962 2.006C24.3509 1.63333 24.9792 1.447 25.6812 1.447C26.3832 1.447 27.0072 1.63333 27.5532 2.006C28.1079 2.37867 28.5412 2.916 28.8532 3.618C29.1652 4.31133 29.3212 5.13033 29.3212 6.075C29.3212 7.01967 29.1652 7.843 28.8532 8.545C28.5412 9.23833 28.1079 9.77133 27.5532 10.144C27.0072 10.5167 26.3832 10.703 25.6812 10.703ZM25.6812 9.845C26.2099 9.845 26.6736 9.69767 27.0722 9.403C27.4796 9.10833 27.7959 8.67933 28.0212 8.116C28.2466 7.55267 28.3592 6.87233 28.3592 6.075C28.3592 5.27767 28.2466 4.59733 28.0212 4.034C27.7959 3.47067 27.4796 3.04167 27.0722 2.747C26.6736 2.45233 26.2099 2.305 25.6812 2.305C25.1526 2.305 24.6846 2.45233 24.2772 2.747C23.8786 3.04167 23.5666 3.47067 23.3412 4.034C23.1159 4.59733 23.0032 5.27767 23.0032 6.075C23.0032 6.87233 23.1159 7.55267 23.3412 8.116C23.5666 8.67933 23.8786 9.10833 24.2772 9.403C24.6846 9.69767 25.1526 9.845 25.6812 9.845ZM36.8503 9.793V10.625H30.4673V9.962L34.2503 6.257C34.7269 5.789 35.0476 5.386 35.2123 5.048C35.3856 4.70133 35.4723 4.35467 35.4723 4.008C35.4723 3.47067 35.2859 3.05467 34.9133 2.76C34.5493 2.45667 34.0249 2.305 33.3403 2.305C32.2743 2.305 31.4466 2.643 30.8573 3.319L30.1943 2.747C30.5496 2.331 31.0003 2.01033 31.5463 1.785C32.1009 1.55967 32.7249 1.447 33.4183 1.447C34.3456 1.447 35.0779 1.668 35.6153 2.11C36.1613 2.54333 36.4343 3.14133 36.4343 3.904C36.4343 4.372 36.3303 4.82267 36.1223 5.256C35.9143 5.68933 35.5199 6.18767 34.9393 6.751L31.8453 9.793H36.8503ZM41.1189 5.425C42.0723 5.477 42.7959 5.737 43.2899 6.205C43.7926 6.66433 44.0439 7.26667 44.0439 8.012C44.0439 8.532 43.9183 8.99567 43.6669 9.403C43.4156 9.80167 43.0429 10.118 42.5489 10.352C42.0549 10.586 41.4526 10.703 40.7419 10.703C40.0833 10.703 39.4593 10.599 38.8699 10.391C38.2893 10.1743 37.8213 9.88833 37.4659 9.533L37.9209 8.792C38.2243 9.104 38.6273 9.35967 39.1299 9.559C39.6326 9.74967 40.1699 9.845 40.7419 9.845C41.4873 9.845 42.0636 9.68467 42.4709 9.364C42.8783 9.03467 43.0819 8.584 43.0819 8.012C43.0819 7.44867 42.8783 7.00667 42.4709 6.686C42.0636 6.36533 41.4483 6.205 40.6249 6.205H39.9749V5.516L42.4969 2.357H37.8429V1.525H43.6929V2.188L41.1189 5.425ZM48.7392 7.206L50.6242 4.736H51.4822L49.6362 7.206L51.4822 9.663H50.6242L48.7392 7.206ZM51.0532 7.206L52.9382 4.736H53.7962L51.9502 7.206L53.7962 9.663H52.9382L51.0532 7.206ZM57.3821 2.357H54.1841V1.525H61.5421V2.357H58.3441V10.625H57.3821V2.357ZM68.127 7.492H62.407C62.459 8.20267 62.732 8.779 63.226 9.221C63.72 9.65433 64.344 9.871 65.098 9.871C65.5227 9.871 65.9127 9.79733 66.268 9.65C66.6234 9.494 66.931 9.26867 67.191 8.974L67.711 9.572C67.4077 9.936 67.0264 10.2133 66.567 10.404C66.1164 10.5947 65.618 10.69 65.072 10.69C64.37 10.69 63.746 10.5427 63.2 10.248C62.6627 9.94467 62.2424 9.52867 61.939 9C61.6357 8.47133 61.484 7.87333 61.484 7.206C61.484 6.53867 61.627 5.94067 61.913 5.412C62.2077 4.88333 62.6064 4.47167 63.109 4.177C63.6204 3.88233 64.1924 3.735 64.825 3.735C65.4577 3.735 66.0254 3.88233 66.528 4.177C67.0307 4.47167 67.425 4.88333 67.711 5.412C67.997 5.932 68.14 6.53 68.14 7.206L68.127 7.492ZM64.825 4.528C64.1664 4.528 63.6117 4.74033 63.161 5.165C62.719 5.581 62.4677 6.127 62.407 6.803H67.256C67.1954 6.127 66.9397 5.581 66.489 5.165C66.047 4.74033 65.4924 4.528 64.825 4.528ZM73.5028 3.735C74.3608 3.735 75.0411 3.98633 75.5438 4.489C76.0551 4.983 76.3108 5.70667 76.3108 6.66V10.625H75.3878V6.751C75.3878 6.04033 75.2101 5.49867 74.8548 5.126C74.4994 4.75333 73.9924 4.567 73.3338 4.567C72.5971 4.567 72.0121 4.788 71.5788 5.23C71.1541 5.66333 70.9418 6.26567 70.9418 7.037V10.625H70.0188V3.787H70.9028V5.048C71.1541 4.632 71.5008 4.31133 71.9428 4.086C72.3934 3.852 72.9134 3.735 73.5028 3.735ZM78.8166 0.978999H79.7396V10.625H78.8166V0.978999ZM85.1028 10.69C84.4441 10.69 83.8505 10.5427 83.3218 10.248C82.7931 9.94467 82.3771 9.52867 82.0738 9C81.7705 8.47133 81.6188 7.87333 81.6188 7.206C81.6188 6.53867 81.7705 5.94067 82.0738 5.412C82.3771 4.88333 82.7931 4.47167 83.3218 4.177C83.8505 3.88233 84.4441 3.735 85.1028 3.735C85.7615 3.735 86.3551 3.88233 86.8838 4.177C87.4125 4.47167 87.8241 4.88333 88.1188 5.412C88.4221 5.94067 88.5738 6.53867 88.5738 7.206C88.5738 7.87333 88.4221 8.47133 88.1188 9C87.8241 9.52867 87.4125 9.94467 86.8838 10.248C86.3551 10.5427 85.7615 10.69 85.1028 10.69ZM85.1028 9.871C85.5881 9.871 86.0215 9.76267 86.4028 9.546C86.7928 9.32067 87.0961 9.00433 87.3128 8.597C87.5295 8.18967 87.6378 7.726 87.6378 7.206C87.6378 6.686 87.5295 6.22233 87.3128 5.815C87.0961 5.40767 86.7928 5.09567 86.4028 4.879C86.0215 4.65367 85.5881 4.541 85.1028 4.541C84.6175 4.541 84.1798 4.65367 83.7898 4.879C83.4085 5.09567 83.1051 5.40767 82.8798 5.815C82.6631 6.22233 82.5548 6.686 82.5548 7.206C82.5548 7.726 82.6631 8.18967 82.8798 8.597C83.1051 9.00433 83.4085 9.32067 83.7898 9.546C84.1798 9.76267 84.6175 9.871 85.1028 9.871ZM93.2922 10.69C92.6162 10.69 92.0095 10.5427 91.4722 10.248C90.9435 9.95333 90.5275 9.54167 90.2242 9.013C89.9209 8.47567 89.7692 7.87333 89.7692 7.206C89.7692 6.53867 89.9209 5.94067 90.2242 5.412C90.5275 4.88333 90.9435 4.47167 91.4722 4.177C92.0095 3.88233 92.6162 3.735 93.2922 3.735C93.8815 3.735 94.4059 3.852 94.8652 4.086C95.3332 4.31133 95.7015 4.645 95.9702 5.087L95.2812 5.555C95.0559 5.217 94.7699 4.96567 94.4232 4.801C94.0765 4.62767 93.6995 4.541 93.2922 4.541C92.7982 4.541 92.3519 4.65367 91.9532 4.879C91.5632 5.09567 91.2555 5.40767 91.0302 5.815C90.8135 6.22233 90.7052 6.686 90.7052 7.206C90.7052 7.73467 90.8135 8.20267 91.0302 8.61C91.2555 9.00867 91.5632 9.32067 91.9532 9.546C92.3519 9.76267 92.7982 9.871 93.2922 9.871C93.6995 9.871 94.0765 9.78867 94.4232 9.624C94.7699 9.45933 95.0559 9.208 95.2812 8.87L95.9702 9.338C95.7015 9.78 95.3332 10.118 94.8652 10.352C94.3972 10.5773 93.8729 10.69 93.2922 10.69ZM96.9904 9.663L98.8364 7.206L96.9904 4.736H97.8484L99.7334 7.206L97.8484 9.663H96.9904ZM99.3044 9.663L101.15 7.206L99.3044 4.736H100.162L102.047 7.206L100.162 9.663H99.3044ZM103.994 10.69C103.803 10.69 103.638 10.6207 103.5 10.482C103.37 10.3433 103.305 10.1743 103.305 9.975C103.305 9.77567 103.37 9.611 103.5 9.481C103.638 9.34233 103.803 9.273 103.994 9.273C104.184 9.273 104.349 9.34233 104.488 9.481C104.626 9.611 104.696 9.77567 104.696 9.975C104.696 10.1743 104.626 10.3433 104.488 10.482C104.349 10.6207 104.184 10.69 103.994 10.69Z" fill="#252525"/>
</svg>
