<svg width="51" height="51" viewBox="0 0 51 51" fill="none" xmlns="http://www.w3.org/2000/svg">
<rect opacity="0.1" x="0.483521" y="0.0107422" width="50" height="50" rx="25" fill="white"/>
<path d="M25.4835 34.6901C25.1439 34.6942 24.8069 34.6307 24.4922 34.5032C24.1774 34.3757 23.8912 34.1869 23.6502 33.9476L17.2794 27.5309C16.5215 26.7901 15.9705 25.8641 15.6811 24.8446C15.3916 23.8251 15.3738 22.7477 15.6294 21.7192C15.9004 20.7256 16.4221 19.8183 17.1444 19.0841C17.8667 18.35 18.7655 17.8137 19.7546 17.5266C20.7437 17.2396 21.79 17.2114 22.7931 17.4447C23.7963 17.678 24.7227 18.1651 25.4835 18.8592C26.2444 18.1651 27.1708 17.678 28.1739 17.4447C29.177 17.2114 30.2233 17.2396 31.2124 17.5266C32.2015 17.8137 33.1003 18.35 33.8226 19.0841C34.545 19.8183 35.0667 20.7256 35.3377 21.7192C35.5984 22.7568 35.5805 23.8449 35.286 24.8734C34.9914 25.9019 34.4306 26.8344 33.6602 27.5767L27.2435 33.9934C26.7675 34.4422 26.1377 34.6915 25.4835 34.6901ZM21.4227 18.6667C20.431 18.6667 19.466 18.9884 18.6727 19.5834C17.8338 20.1988 17.2293 21.0814 16.9585 22.0859C16.761 22.8887 16.7791 23.7294 17.0109 24.523C17.2427 25.3165 17.68 26.0348 18.2785 26.6051L24.6952 33.0217C24.9168 33.2423 25.2167 33.3661 25.5294 33.3661C25.842 33.3661 26.1419 33.2423 26.3635 33.0217L32.7802 26.6509C33.3713 26.0653 33.7965 25.3334 34.0123 24.5297C34.2281 23.7261 34.2268 22.8797 34.0085 22.0767C33.7382 21.0768 33.1373 20.198 32.3035 19.5834C31.3562 18.8909 30.1835 18.5791 29.0173 18.7098C27.8511 18.8405 26.7765 19.4042 26.006 20.2892C25.9378 20.3585 25.8564 20.4136 25.7667 20.4511C25.677 20.4887 25.5808 20.508 25.4835 20.508C25.3863 20.508 25.29 20.4887 25.2003 20.4511C25.1106 20.4136 25.0293 20.3585 24.961 20.2892C24.5228 19.78 23.9798 19.3714 23.3691 19.0914C22.7585 18.8113 22.0945 18.6665 21.4227 18.6667Z" fill="white"/>
</svg>
