<svg width="47" height="46" viewBox="0 0 47 46" fill="none" xmlns="http://www.w3.org/2000/svg">
<circle cx="23.7292" cy="23" r="23" fill="#E9E9E9"/>
<g clip-path="url(#clip0_35_261)">
<path d="M32.948 22.2188H24.5105V13.7812C24.5105 13.3498 24.1607 13 23.7292 13C23.2978 13 22.948 13.3498 22.948 13.7812V22.2188H14.5105C14.079 22.2188 13.7292 22.5685 13.7292 23C13.7292 23.4315 14.079 23.7812 14.5105 23.7812H22.948V32.2188C22.948 32.6502 23.2978 33 23.7292 33C24.1607 33 24.5105 32.6502 24.5105 32.2188V23.7812H32.948C33.3795 23.7812 33.7292 23.4315 33.7292 23C33.7292 22.5685 33.3795 22.2188 32.948 22.2188Z" fill="black"/>
</g>
<defs>
<clipPath id="clip0_35_261">
<rect width="20" height="20" fill="white" transform="translate(13.7292 13)"/>
</clipPath>
</defs>
</svg>
