<svg width="51" height="51" viewBox="0 0 51 51" fill="none" xmlns="http://www.w3.org/2000/svg">
<rect x="0.748535" y="0.0107422" width="50" height="50" rx="25" fill="#F5F5F5"/>
<path d="M25.7485 34.6899C25.409 34.6941 25.0719 34.6306 24.7572 34.5031C24.4424 34.3756 24.1562 34.1867 23.9152 33.9474L17.5444 27.5308C16.7865 26.79 16.2355 25.864 15.9461 24.8445C15.6567 23.825 15.6388 22.7476 15.8944 21.7191C16.1654 20.7255 16.6871 19.8181 17.4094 19.084C18.1318 18.3499 19.0306 17.8136 20.0197 17.5265C21.0088 17.2395 22.055 17.2112 23.0581 17.4446C24.0613 17.6779 24.9877 18.165 25.7485 18.8591C26.5094 18.165 27.4358 17.6779 28.4389 17.4446C29.4421 17.2112 30.4883 17.2395 31.4774 17.5265C32.4665 17.8136 33.3653 18.3499 34.0876 19.084C34.81 19.8181 35.3317 20.7255 35.6027 21.7191C35.8634 22.7567 35.8456 23.8448 35.551 24.8733C35.2565 25.9018 34.6956 26.8343 33.9252 27.5766L27.5085 33.9933C27.0326 34.442 26.4027 34.6914 25.7485 34.6899ZM21.6877 18.6666C20.696 18.6666 19.7311 18.9883 18.9377 19.5833C18.0988 20.1987 17.4943 21.0812 17.2235 22.0858C17.026 22.8886 17.0441 23.7293 17.2759 24.5228C17.5077 25.3164 17.945 26.0347 18.5435 26.6049L24.9602 33.0216C25.1818 33.2422 25.4817 33.366 25.7944 33.366C26.107 33.366 26.4069 33.2422 26.6285 33.0216L33.0452 26.6508C33.6363 26.0652 34.0615 25.3332 34.2773 24.5296C34.4931 23.726 34.4918 22.8796 34.2735 22.0766C34.0033 21.0767 33.4023 20.1979 32.5685 19.5833C31.6212 18.8907 30.4485 18.579 29.2823 18.7097C28.1161 18.8404 27.0415 19.404 26.271 20.2891C26.2028 20.3584 26.1215 20.4134 26.0318 20.451C25.9421 20.4885 25.8458 20.5079 25.7485 20.5079C25.6513 20.5079 25.555 20.4885 25.4653 20.451C25.3756 20.4134 25.2943 20.3584 25.226 20.2891C24.7878 19.7799 24.2448 19.3713 23.6341 19.0912C23.0235 18.8112 22.3595 18.6664 21.6877 18.6666Z" fill="#959595"/>
</svg>
