<svg width="151" height="25" viewBox="0 0 151 25" fill="none" xmlns="http://www.w3.org/2000/svg">
<path d="M26.138 10.58C27.062 10.58 27.7947 10.8507 28.336 11.392C28.8867 11.924 29.162 12.7033 29.162 13.73V18H28.168V13.828C28.168 13.0627 27.9767 12.4793 27.594 12.078C27.2113 11.6767 26.6653 11.476 25.956 11.476C25.1627 11.476 24.5327 11.714 24.066 12.19C23.6087 12.6567 23.38 13.3053 23.38 14.136V18H22.386V7.612H23.38V11.924C23.6507 11.4947 24.024 11.1633 24.5 10.93C24.976 10.6967 25.522 10.58 26.138 10.58ZM38.3 14.626H32.14C32.196 15.3913 32.49 16.012 33.022 16.488C33.554 16.9547 34.226 17.188 35.038 17.188C35.4953 17.188 35.9153 17.1087 36.298 16.95C36.6806 16.782 37.012 16.5393 37.292 16.222L37.852 16.866C37.5253 17.258 37.1146 17.5567 36.62 17.762C36.1346 17.9673 35.598 18.07 35.01 18.07C34.254 18.07 33.582 17.9113 32.994 17.594C32.4153 17.2673 31.9626 16.8193 31.636 16.25C31.3093 15.6807 31.146 15.0367 31.146 14.318C31.146 13.5993 31.3 12.9553 31.608 12.386C31.9253 11.8167 32.3546 11.3733 32.896 11.056C33.4466 10.7387 34.0626 10.58 34.744 10.58C35.4253 10.58 36.0366 10.7387 36.578 11.056C37.1193 11.3733 37.544 11.8167 37.852 12.386C38.16 12.946 38.314 13.59 38.314 14.318L38.3 14.626ZM34.744 11.434C34.0346 11.434 33.4373 11.6627 32.952 12.12C32.476 12.568 32.2053 13.156 32.14 13.884H37.362C37.2966 13.156 37.0213 12.568 36.536 12.12C36.06 11.6627 35.4626 11.434 34.744 11.434ZM40.3372 7.612H41.3312V18H40.3372V7.612ZM44.0969 7.612H45.0909V18H44.0969V7.612ZM50.8667 18.07C50.1574 18.07 49.518 17.9113 48.9487 17.594C48.3794 17.2673 47.9314 16.8193 47.6047 16.25C47.278 15.6807 47.1147 15.0367 47.1147 14.318C47.1147 13.5993 47.278 12.9553 47.6047 12.386C47.9314 11.8167 48.3794 11.3733 48.9487 11.056C49.518 10.7387 50.1574 10.58 50.8667 10.58C51.576 10.58 52.2154 10.7387 52.7847 11.056C53.354 11.3733 53.7974 11.8167 54.1147 12.386C54.4414 12.9553 54.6047 13.5993 54.6047 14.318C54.6047 15.0367 54.4414 15.6807 54.1147 16.25C53.7974 16.8193 53.354 17.2673 52.7847 17.594C52.2154 17.9113 51.576 18.07 50.8667 18.07ZM50.8667 17.188C51.3894 17.188 51.856 17.0713 52.2667 16.838C52.6867 16.5953 53.0134 16.2547 53.2467 15.816C53.48 15.3773 53.5967 14.878 53.5967 14.318C53.5967 13.758 53.48 13.2587 53.2467 12.82C53.0134 12.3813 52.6867 12.0453 52.2667 11.812C51.856 11.5693 51.3894 11.448 50.8667 11.448C50.344 11.448 49.8727 11.5693 49.4527 11.812C49.042 12.0453 48.7154 12.3813 48.4727 12.82C48.2394 13.2587 48.1227 13.758 48.1227 14.318C48.1227 14.878 48.2394 15.3773 48.4727 15.816C48.7154 16.2547 49.042 16.5953 49.4527 16.838C49.8727 17.0713 50.344 17.188 50.8667 17.188ZM62.514 8.116C63.7647 8.116 64.88 8.37733 65.86 8.9C66.8494 9.41333 67.6194 10.1413 68.17 11.084C68.7207 12.0173 68.996 13.086 68.996 14.29C68.996 15.4753 68.7907 16.404 68.38 17.076C67.9694 17.7387 67.4 18.07 66.672 18.07C66.2147 18.07 65.8414 17.9347 65.552 17.664C65.272 17.3933 65.118 17.02 65.09 16.544C64.81 17.0293 64.4274 17.4073 63.942 17.678C63.4567 17.9393 62.906 18.07 62.29 18.07C61.6367 18.07 61.044 17.916 60.512 17.608C59.9894 17.2907 59.574 16.8567 59.266 16.306C58.9674 15.7553 58.818 15.1347 58.818 14.444C58.818 13.7533 58.9674 13.1373 59.266 12.596C59.574 12.0453 59.9894 11.616 60.512 11.308C61.044 11 61.6367 10.846 62.29 10.846C62.8874 10.846 63.424 10.9767 63.9 11.238C64.3854 11.49 64.7727 11.8493 65.062 12.316V10.902H65.972V16.208C65.972 16.5813 66.0514 16.852 66.21 17.02C66.3687 17.188 66.5787 17.272 66.84 17.272C67.2787 17.272 67.624 17.0107 67.876 16.488C68.1374 15.9653 68.268 15.2373 68.268 14.304C68.268 13.2213 68.0254 12.2693 67.54 11.448C67.0547 10.6173 66.3734 9.97333 65.496 9.516C64.628 9.05867 63.634 8.83 62.514 8.83C61.3847 8.83 60.3814 9.068 59.504 9.544C58.636 10.0107 57.9594 10.6733 57.474 11.532C56.9887 12.3813 56.746 13.352 56.746 14.444C56.746 15.536 56.984 16.5113 57.46 17.37C57.9454 18.2287 58.6174 18.896 59.476 19.372C60.344 19.848 61.338 20.086 62.458 20.086C62.8967 20.086 63.354 20.0347 63.83 19.932C64.3154 19.8293 64.754 19.6753 65.146 19.47L65.384 20.156C64.9827 20.3613 64.516 20.52 63.984 20.632C63.4614 20.744 62.9527 20.8 62.458 20.8C61.1887 20.8 60.064 20.5293 59.084 19.988C58.104 19.4467 57.3387 18.6953 56.788 17.734C56.2467 16.7633 55.976 15.6667 55.976 14.444C55.976 13.212 56.2514 12.12 56.802 11.168C57.3527 10.2067 58.1227 9.46 59.112 8.928C60.1107 8.38667 61.2447 8.116 62.514 8.116ZM62.416 17.258C62.92 17.258 63.3727 17.1413 63.774 16.908C64.1754 16.6747 64.4927 16.348 64.726 15.928C64.9594 15.4987 65.076 15.004 65.076 14.444C65.076 13.8933 64.9594 13.408 64.726 12.988C64.4927 12.5587 64.1754 12.232 63.774 12.008C63.3727 11.7747 62.92 11.658 62.416 11.658C61.9027 11.658 61.4407 11.7747 61.03 12.008C60.6287 12.2413 60.3114 12.568 60.078 12.988C59.854 13.408 59.742 13.8933 59.742 14.444C59.742 14.9947 59.854 15.4847 60.078 15.914C60.3114 16.334 60.6287 16.6653 61.03 16.908C61.4407 17.1413 61.9027 17.258 62.416 17.258ZM75.0453 17.552C74.8586 17.72 74.6253 17.8507 74.3453 17.944C74.0746 18.028 73.7899 18.07 73.4913 18.07C72.8006 18.07 72.2686 17.8833 71.8953 17.51C71.5219 17.1367 71.3353 16.6093 71.3353 15.928V11.476H70.0193V10.636H71.3353V9.026H72.3293V10.636H74.5693V11.476H72.3293V15.872C72.3293 16.3107 72.4366 16.6467 72.6513 16.88C72.8753 17.104 73.1926 17.216 73.6033 17.216C73.8086 17.216 74.0046 17.1833 74.1913 17.118C74.3873 17.0527 74.5553 16.9593 74.6953 16.838L75.0453 17.552ZM77.8068 12.078C78.0401 11.5833 78.3854 11.21 78.8428 10.958C79.3094 10.706 79.8834 10.58 80.5648 10.58V11.546L80.3268 11.532C79.5521 11.532 78.9454 11.77 78.5068 12.246C78.0681 12.722 77.8488 13.3893 77.8488 14.248V18H76.8548V10.636H77.8068V12.078ZM88.7082 14.626H82.5482C82.6042 15.3913 82.8982 16.012 83.4302 16.488C83.9622 16.9547 84.6342 17.188 85.4462 17.188C85.9035 17.188 86.3235 17.1087 86.7062 16.95C87.0888 16.782 87.4202 16.5393 87.7002 16.222L88.2602 16.866C87.9335 17.258 87.5228 17.5567 87.0282 17.762C86.5428 17.9673 86.0062 18.07 85.4182 18.07C84.6622 18.07 83.9902 17.9113 83.4022 17.594C82.8235 17.2673 82.3708 16.8193 82.0442 16.25C81.7175 15.6807 81.5542 15.0367 81.5542 14.318C81.5542 13.5993 81.7082 12.9553 82.0162 12.386C82.3335 11.8167 82.7628 11.3733 83.3042 11.056C83.8548 10.7387 84.4708 10.58 85.1522 10.58C85.8335 10.58 86.4448 10.7387 86.9862 11.056C87.5275 11.3733 87.9522 11.8167 88.2602 12.386C88.5682 12.946 88.7222 13.59 88.7222 14.318L88.7082 14.626ZM85.1522 11.434C84.4428 11.434 83.8455 11.6627 83.3602 12.12C82.8842 12.568 82.6135 13.156 82.5482 13.884H87.7702C87.7048 13.156 87.4295 12.568 86.9442 12.12C86.4682 11.6627 85.8708 11.434 85.1522 11.434ZM96.7967 10.636L93.5207 18H92.4987L89.2367 10.636H90.2727L93.0307 16.908L95.8167 10.636H96.7967ZM104.403 14.626H98.2435C98.2995 15.3913 98.5935 16.012 99.1255 16.488C99.6575 16.9547 100.329 17.188 101.141 17.188C101.599 17.188 102.019 17.1087 102.401 16.95C102.784 16.782 103.115 16.5393 103.395 16.222L103.955 16.866C103.629 17.258 103.218 17.5567 102.723 17.762C102.238 17.9673 101.701 18.07 101.113 18.07C100.357 18.07 99.6855 17.9113 99.0975 17.594C98.5188 17.2673 98.0661 16.8193 97.7395 16.25C97.4128 15.6807 97.2495 15.0367 97.2495 14.318C97.2495 13.5993 97.4035 12.9553 97.7115 12.386C98.0288 11.8167 98.4581 11.3733 98.9995 11.056C99.5501 10.7387 100.166 10.58 100.847 10.58C101.529 10.58 102.14 10.7387 102.681 11.056C103.223 11.3733 103.647 11.8167 103.955 12.386C104.263 12.946 104.417 13.59 104.417 14.318L104.403 14.626ZM100.847 11.434C100.138 11.434 99.5408 11.6627 99.0555 12.12C98.5795 12.568 98.3088 13.156 98.2435 13.884H103.465C103.4 13.156 103.125 12.568 102.639 12.12C102.163 11.6627 101.566 11.434 100.847 11.434ZM106.441 7.612H107.435V18H106.441V7.612ZM119.384 10.58C120.308 10.58 121.032 10.846 121.554 11.378C122.086 11.91 122.352 12.694 122.352 13.73V18H121.358V13.828C121.358 13.0627 121.172 12.4793 120.798 12.078C120.434 11.6767 119.916 11.476 119.244 11.476C118.479 11.476 117.877 11.714 117.438 12.19C117 12.6567 116.78 13.3053 116.78 14.136V18H115.786V13.828C115.786 13.0627 115.6 12.4793 115.226 12.078C114.862 11.6767 114.34 11.476 113.658 11.476C112.902 11.476 112.3 11.714 111.852 12.19C111.414 12.6567 111.194 13.3053 111.194 14.136V18H110.2V10.636H111.152V11.98C111.414 11.532 111.778 11.1867 112.244 10.944C112.711 10.7013 113.248 10.58 113.854 10.58C114.47 10.58 115.002 10.7107 115.45 10.972C115.908 11.2333 116.248 11.6207 116.472 12.134C116.743 11.6487 117.13 11.2707 117.634 11C118.148 10.72 118.731 10.58 119.384 10.58ZM131.487 14.626H125.327C125.383 15.3913 125.677 16.012 126.209 16.488C126.741 16.9547 127.413 17.188 128.225 17.188C128.683 17.188 129.103 17.1087 129.485 16.95C129.868 16.782 130.199 16.5393 130.479 16.222L131.039 16.866C130.713 17.258 130.302 17.5567 129.807 17.762C129.322 17.9673 128.785 18.07 128.197 18.07C127.441 18.07 126.769 17.9113 126.181 17.594C125.603 17.2673 125.15 16.8193 124.823 16.25C124.497 15.6807 124.333 15.0367 124.333 14.318C124.333 13.5993 124.487 12.9553 124.795 12.386C125.113 11.8167 125.542 11.3733 126.083 11.056C126.634 10.7387 127.25 10.58 127.931 10.58C128.613 10.58 129.224 10.7387 129.765 11.056C130.307 11.3733 130.731 11.8167 131.039 12.386C131.347 12.946 131.501 13.59 131.501 14.318L131.487 14.626ZM127.931 11.434C127.222 11.434 126.625 11.6627 126.139 12.12C125.663 12.568 125.393 13.156 125.327 13.884H130.549C130.484 13.156 130.209 12.568 129.723 12.12C129.247 11.6627 128.65 11.434 127.931 11.434ZM133.623 18.07C133.417 18.07 133.24 17.9953 133.091 17.846C132.951 17.6967 132.881 17.5147 132.881 17.3C132.881 17.0853 132.951 16.908 133.091 16.768C133.24 16.6187 133.417 16.544 133.623 16.544C133.828 16.544 134.005 16.6187 134.155 16.768C134.304 16.908 134.379 17.0853 134.379 17.3C134.379 17.5147 134.304 17.6967 134.155 17.846C134.005 17.9953 133.828 18.07 133.623 18.07ZM137.443 12.078C137.677 11.5833 138.022 11.21 138.479 10.958C138.946 10.706 139.52 10.58 140.201 10.58V11.546L139.963 11.532C139.189 11.532 138.582 11.77 138.143 12.246C137.705 12.722 137.485 13.3893 137.485 14.248V18H136.491V10.636H137.443V12.078ZM148.747 10.636V18H147.795V16.656C147.533 17.104 147.174 17.454 146.717 17.706C146.259 17.9487 145.737 18.07 145.149 18.07C144.187 18.07 143.427 17.804 142.867 17.272C142.316 16.7307 142.041 15.942 142.041 14.906V10.636H143.035V14.808C143.035 15.5827 143.226 16.1707 143.609 16.572C143.991 16.9733 144.537 17.174 145.247 17.174C146.021 17.174 146.633 16.9407 147.081 16.474C147.529 15.998 147.753 15.34 147.753 14.5V10.636H148.747Z" fill="black"/>
<g clip-path="url(#clip0_35_113)">
<path d="M7.00287 14.7395C6.70432 14.9219 6.35754 15.0184 6 15.0184C5.64248 15.0184 5.2957 14.9219 4.99716 14.7395L0.0798984 11.7344C0.0526172 11.7177 0.0260391 11.7004 0 11.6825V16.6066C0 17.1712 0.499805 17.6193 1.10468 17.6193H10.8953C11.5112 17.6193 12 17.1611 12 16.6066V11.6825C11.9739 11.7004 11.9473 11.7178 11.9199 11.7345L7.00287 14.7395Z" fill="black"/>
<path d="M0.469922 11.1981L5.38718 14.2032C5.57332 14.317 5.78665 14.3738 5.99998 14.3738C6.21333 14.3738 6.42668 14.317 6.61282 14.2032L11.5301 11.1981C11.8243 11.0184 12 10.7176 12 10.393C12 9.8348 11.5046 9.38071 10.8957 9.38071H1.1043C0.495398 9.38073 0 9.83482 0 10.3935C0 10.7176 0.175687 11.0184 0.469922 11.1981Z" fill="black"/>
</g>
<defs>
<clipPath id="clip0_35_113">
<rect width="12" height="11" fill="white" transform="translate(0 8)"/>
</clipPath>
</defs>
</svg>
