<svg width="146" height="25" viewBox="0 0 146 25" fill="none" xmlns="http://www.w3.org/2000/svg">
<path d="M29.07 13.52H26.466V16.068H25.584V13.52H22.98V12.694H25.584V10.132H26.466V12.694H29.07V13.52ZM37.56 8.2V8.914L33.458 18H32.366L36.398 9.096H31.358V10.93H30.364V8.2H37.56ZM44.9042 20.716C44.3816 19.8573 43.9802 18.8727 43.7002 17.762C43.4202 16.642 43.2802 15.4427 43.2802 14.164C43.2802 12.8853 43.4202 11.686 43.7002 10.566C43.9802 9.43667 44.3816 8.452 44.9042 7.612H45.8562C45.3056 8.55467 44.8996 9.56733 44.6382 10.65C44.3862 11.7327 44.2602 12.904 44.2602 14.164C44.2602 15.424 44.3862 16.5953 44.6382 17.678C44.8996 18.7607 45.3056 19.7733 45.8562 20.716H44.9042ZM55.2162 15.424H53.2562V18H52.2482V15.424H46.7182V14.696L51.9122 8.2H53.0322L48.0202 14.528H52.2762V12.26H53.2562V14.528H55.2162V15.424ZM59.0847 8.116C60.382 8.116 61.376 8.54533 62.0667 9.404C62.7574 10.2533 63.1027 11.4573 63.1027 13.016C63.1027 14.108 62.916 15.032 62.5427 15.788C62.1694 16.544 61.6467 17.118 60.9747 17.51C60.3027 17.8927 59.5187 18.084 58.6227 18.084C57.652 18.084 56.8774 17.9067 56.2987 17.552L56.7047 16.74C57.1714 17.048 57.806 17.202 58.6087 17.202C59.6914 17.202 60.5407 16.8613 61.1567 16.18C61.7727 15.4893 62.0807 14.4907 62.0807 13.184C62.0807 12.9413 62.0667 12.6753 62.0387 12.386C61.796 12.918 61.4087 13.3333 60.8767 13.632C60.3447 13.9213 59.7334 14.066 59.0427 14.066C58.3987 14.066 57.8247 13.9447 57.3207 13.702C56.826 13.4593 56.4387 13.1187 56.1587 12.68C55.8787 12.232 55.7387 11.714 55.7387 11.126C55.7387 10.5287 55.8834 10.0013 56.1727 9.544C56.462 9.08667 56.8587 8.73667 57.3627 8.494C57.876 8.242 58.45 8.116 59.0847 8.116ZM59.1967 13.212C59.6914 13.212 60.1254 13.1187 60.4987 12.932C60.8814 12.7453 61.18 12.4887 61.3947 12.162C61.6094 11.8353 61.7167 11.4713 61.7167 11.07C61.7167 10.6967 61.614 10.3513 61.4087 10.034C61.2127 9.71667 60.9187 9.46 60.5267 9.264C60.1347 9.068 59.668 8.97 59.1267 8.97C58.4174 8.97 57.8387 9.166 57.3907 9.558C56.952 9.94067 56.7327 10.454 56.7327 11.098C56.7327 11.742 56.952 12.2553 57.3907 12.638C57.8387 13.0207 58.4407 13.212 59.1967 13.212ZM67.1399 12.218C68.5586 12.218 69.5899 12.4747 70.2339 12.988C70.8873 13.492 71.2139 14.2013 71.2139 15.116C71.2139 15.6853 71.0786 16.194 70.8079 16.642C70.5466 17.09 70.1499 17.4447 69.6179 17.706C69.0859 17.958 68.4326 18.084 67.6579 18.084C66.9579 18.084 66.2906 17.972 65.6559 17.748C65.0306 17.5147 64.5266 17.2067 64.1439 16.824L64.6339 16.026C64.9606 16.362 65.3899 16.6373 65.9219 16.852C66.4539 17.0573 67.0279 17.16 67.6439 17.16C68.4559 17.16 69.0813 16.978 69.5199 16.614C69.9679 16.25 70.1919 15.7647 70.1919 15.158C70.1919 14.486 69.9399 13.9773 69.4359 13.632C68.9413 13.2867 68.1013 13.114 66.9159 13.114H64.8299L65.3339 8.2H70.6959V9.096H66.2159L65.8799 12.218H67.1399ZM72.3256 20.716C72.8763 19.7733 73.2823 18.7653 73.5436 17.692C73.805 16.6093 73.9356 15.4333 73.9356 14.164C73.9356 12.8947 73.805 11.7233 73.5436 10.65C73.2823 9.56733 72.8763 8.55467 72.3256 7.612H73.2776C73.8003 8.452 74.2016 9.43667 74.4816 10.566C74.771 11.686 74.9156 12.8853 74.9156 14.164C74.9156 15.4427 74.7756 16.642 74.4956 17.762C74.2156 18.882 73.8096 19.8667 73.2776 20.716H72.3256ZM83.4811 8.2V18H82.4731V9.096H80.1631V8.2H83.4811ZM92.5157 17.104V18H85.6417V17.286L89.7157 13.296C90.229 12.792 90.5744 12.358 90.7517 11.994C90.9384 11.6207 91.0317 11.2473 91.0317 10.874C91.0317 10.2953 90.831 9.84733 90.4297 9.53C90.0377 9.20333 89.473 9.04 88.7357 9.04C87.5877 9.04 86.6964 9.404 86.0617 10.132L85.3477 9.516C85.7304 9.068 86.2157 8.72267 86.8037 8.48C87.401 8.23733 88.073 8.116 88.8197 8.116C89.8184 8.116 90.607 8.354 91.1857 8.83C91.7737 9.29667 92.0677 9.94067 92.0677 10.762C92.0677 11.266 91.9557 11.7513 91.7317 12.218C91.5077 12.6847 91.083 13.2213 90.4577 13.828L87.1257 17.104H92.5157ZM97.1127 12.4C98.1394 12.456 98.9187 12.736 99.4507 13.24C99.9921 13.7347 100.263 14.3833 100.263 15.186C100.263 15.746 100.127 16.2453 99.8567 16.684C99.5861 17.1133 99.1847 17.454 98.6527 17.706C98.1207 17.958 97.4721 18.084 96.7067 18.084C95.9974 18.084 95.3254 17.972 94.6907 17.748C94.0654 17.5147 93.5614 17.2067 93.1787 16.824L93.6687 16.026C93.9954 16.362 94.4294 16.6373 94.9707 16.852C95.5121 17.0573 96.0907 17.16 96.7067 17.16C97.5094 17.16 98.1301 16.9873 98.5687 16.642C99.0074 16.2873 99.2267 15.802 99.2267 15.186C99.2267 14.5793 99.0074 14.1033 98.5687 13.758C98.1301 13.4127 97.4674 13.24 96.5807 13.24H95.8807V12.498L98.5967 9.096H93.5847V8.2H99.8847V8.914L97.1127 12.4ZM101.795 13.772H105.463V14.64H101.795V13.772ZM115.468 15.424H113.508V18H112.5V15.424H106.97V14.696L112.164 8.2H113.284L108.272 14.528H112.528V12.26H113.508V14.528H115.468V15.424ZM118.915 12.218C120.334 12.218 121.365 12.4747 122.009 12.988C122.663 13.492 122.989 14.2013 122.989 15.116C122.989 15.6853 122.854 16.194 122.583 16.642C122.322 17.09 121.925 17.4447 121.393 17.706C120.861 17.958 120.208 18.084 119.433 18.084C118.733 18.084 118.066 17.972 117.431 17.748C116.806 17.5147 116.302 17.2067 115.919 16.824L116.409 16.026C116.736 16.362 117.165 16.6373 117.697 16.852C118.229 17.0573 118.803 17.16 119.419 17.16C120.231 17.16 120.857 16.978 121.295 16.614C121.743 16.25 121.967 15.7647 121.967 15.158C121.967 14.486 121.715 13.9773 121.211 13.632C120.717 13.2867 119.877 13.114 118.691 13.114H116.605L117.109 8.2H122.471V9.096H117.991L117.655 12.218H118.915ZM124.381 13.772H128.049V14.64H124.381V13.772ZM133.784 12.134C134.428 12.134 134.997 12.2553 135.492 12.498C135.996 12.7407 136.388 13.086 136.668 13.534C136.948 13.9727 137.088 14.486 137.088 15.074C137.088 15.6713 136.943 16.1987 136.654 16.656C136.365 17.1133 135.963 17.468 135.45 17.72C134.946 17.9627 134.377 18.084 133.742 18.084C132.445 18.084 131.451 17.6593 130.76 16.81C130.069 15.9513 129.724 14.7427 129.724 13.184C129.724 12.092 129.911 11.168 130.284 10.412C130.657 9.656 131.18 9.08667 131.852 8.704C132.524 8.312 133.308 8.116 134.204 8.116C135.175 8.116 135.949 8.29333 136.528 8.648L136.122 9.46C135.655 9.152 135.021 8.998 134.218 8.998C133.135 8.998 132.286 9.34333 131.67 10.034C131.054 10.7153 130.746 11.7093 130.746 13.016C130.746 13.2493 130.76 13.5153 130.788 13.814C131.031 13.282 131.418 12.8713 131.95 12.582C132.482 12.2833 133.093 12.134 133.784 12.134ZM133.7 17.23C134.409 17.23 134.983 17.0387 135.422 16.656C135.87 16.264 136.094 15.746 136.094 15.102C136.094 14.458 135.87 13.9447 135.422 13.562C134.983 13.1793 134.386 12.988 133.63 12.988C133.135 12.988 132.697 13.0813 132.314 13.268C131.941 13.4547 131.647 13.7113 131.432 14.038C131.217 14.3647 131.11 14.7287 131.11 15.13C131.11 15.5033 131.208 15.8487 131.404 16.166C131.609 16.4833 131.908 16.74 132.3 16.936C132.692 17.132 133.159 17.23 133.7 17.23ZM145.062 8.2V8.914L140.96 18H139.868L143.9 9.096H138.86V10.93H137.866V8.2H145.062Z" fill="black"/>
<g clip-path="url(#clip0_35_112)">
<path d="M12.8766 15.6789C12.0195 15.6789 11.1779 15.5523 10.3804 15.3033C9.98958 15.1775 9.50917 15.2929 9.27066 15.5243L7.6965 16.6466C5.87092 15.7263 4.7464 14.6646 3.78521 12.9533L4.93857 11.5054C5.23822 11.2227 5.3457 10.8099 5.21693 10.4225C4.95225 9.66535 4.81779 8.87088 4.81779 8.06101C4.81782 7.47597 4.31386 7 3.69443 7H1.12339C0.503964 7 0 7.47597 0 8.06098C0 14.7668 5.77639 20.2222 12.8766 20.2222C13.4961 20.2222 14 19.7463 14 19.1612V16.7398C14 16.1548 13.496 15.6789 12.8766 15.6789Z" fill="black"/>
</g>
<defs>
<clipPath id="clip0_35_112">
<rect width="14" height="13.2222" fill="white" transform="translate(0 7)"/>
</clipPath>
</defs>
</svg>
